<svg width="16" height="16" viewBox="0 0 16 16" fill="none" xmlns="http://www.w3.org/2000/svg">
<path d="M1.52827 5.13807C1.78862 5.39842 2.21073 5.39842 2.47108 5.13807L3.33301 4.27614V13.3333C3.33301 13.7015 3.63148 14 3.99967 14C4.36786 14 4.66634 13.7015 4.66634 13.3333V4.27614L5.52827 5.13807C5.78862 5.39842 6.21073 5.39842 6.47108 5.13807C6.73143 4.87772 6.73143 4.45561 6.47108 4.19526L4.47108 2.19526C4.40716 2.13134 4.33349 2.08312 4.25486 2.05059C4.17684 2.01823 4.09134 2.00027 4.00167 2L3.99967 2L3.99768 2C3.82773 2.00051 3.65794 2.0656 3.52827 2.19526L1.52827 4.19526C1.26792 4.45561 1.26792 4.87772 1.52827 5.13807Z" fill="#3E3B46"/>
<path d="M10.6663 3.33333C10.2982 3.33333 9.99967 3.63181 9.99967 4C9.99967 4.36819 10.2982 4.66667 10.6663 4.66667H13.333C13.7012 4.66667 13.9997 4.36819 13.9997 4C13.9997 3.63181 13.7012 3.33333 13.333 3.33333H10.6663Z" fill="#3E3B46"/>
<path d="M8.66634 8C8.66634 7.63181 8.96482 7.33333 9.33301 7.33333H13.333C13.7012 7.33333 13.9997 7.63181 13.9997 8C13.9997 8.36819 13.7012 8.66667 13.333 8.66667H9.33301C8.96482 8.66667 8.66634 8.36819 8.66634 8Z" fill="#3E3B46"/>
<path d="M7.99967 11.3333C7.63148 11.3333 7.33301 11.6318 7.33301 12C7.33301 12.3682 7.63148 12.6667 7.99967 12.6667H13.333C13.7012 12.6667 13.9997 12.3682 13.9997 12C13.9997 11.6318 13.7012 11.3333 13.333 11.3333H7.99967Z" fill="#3E3B46"/>
</svg>
