<svg width="24" height="24" viewBox="0 0 24 24" fill="none" xmlns="http://www.w3.org/2000/svg">
<path fill-rule="evenodd" clip-rule="evenodd" d="M13.8387 3.673C12.6972 3.03088 11.3033 3.03088 10.1618 3.673L3.63257 7.34568C3.39641 7.47852 3.25027 7.72841 3.25027 7.99936C3.25027 8.27032 3.39641 8.52021 3.63257 8.65305L11.1423 12.8773C11.675 13.1769 12.3255 13.1769 12.8582 12.8773L20.368 8.65305C20.6041 8.52021 20.7503 8.27032 20.7503 7.99936C20.7503 7.72841 20.6041 7.47852 20.368 7.34568L13.8387 3.673ZM10.8972 4.98036C11.5821 4.59509 12.4184 4.59509 13.1034 4.98036L18.4705 7.99936L12.1228 11.5699C12.0467 11.6127 11.9538 11.6127 11.8777 11.5699L5.53006 7.99936L10.8972 4.98036Z" fill="#3E3B46"/>
<path d="M20.6538 11.6317C20.4507 11.2707 19.9935 11.1426 19.6324 11.3457L13.1032 15.0184C12.4183 15.4037 11.582 15.4037 10.897 15.0184L4.36783 11.3457C4.00681 11.1426 3.54952 11.2707 3.34645 11.6317C3.14338 11.9927 3.27142 12.45 3.63244 12.6531L10.1617 16.3258C11.3032 16.9679 12.6971 16.9679 13.8386 16.3258L20.3678 12.6531C20.7288 12.45 20.8569 11.9927 20.6538 11.6317Z" fill="#3E3B46"/>
<path d="M19.6324 15.3457C19.9935 15.1426 20.4507 15.2707 20.6538 15.6317C20.8569 15.9927 20.7288 16.45 20.3678 16.6531L13.8386 20.3258C12.6971 20.9679 11.3032 20.9679 10.1617 20.3258L3.63244 16.6531C3.27142 16.45 3.14338 15.9927 3.34645 15.6317C3.54952 15.2707 4.00681 15.1426 4.36783 15.3457L10.897 19.0184C11.582 19.4037 12.4183 19.4037 13.1032 19.0184L19.6324 15.3457Z" fill="#3E3B46"/>
</svg>
