<svg width="24" height="24" viewBox="0 0 24 24" fill="none" xmlns="http://www.w3.org/2000/svg">
<path fill-rule="evenodd" clip-rule="evenodd" d="M8.25 10C8.25 7.92893 9.92893 6.25 12 6.25C14.0711 6.25 15.75 7.92893 15.75 10C15.75 11.5654 14.7909 12.9067 13.4282 13.4685C15.1717 14.0174 16.4809 15.5448 16.7132 17.4072C16.7644 17.8182 16.4728 18.193 16.0618 18.2442C15.6507 18.2955 15.276 18.0038 15.2247 17.5928C15.0249 15.9904 13.6567 14.75 11.9999 14.75C10.3431 14.75 8.9749 15.9904 8.77508 17.5928C8.72382 18.0038 8.34907 18.2955 7.93804 18.2442C7.52701 18.193 7.23535 17.8182 7.2866 17.4072C7.51885 15.5448 8.82814 14.0173 10.5717 13.4684C9.20911 12.9067 8.25 11.5653 8.25 10ZM12 7.75C10.7574 7.75 9.75 8.75736 9.75 10C9.75 11.2426 10.7574 12.25 12 12.25C13.2426 12.25 14.25 11.2426 14.25 10C14.25 8.75736 13.2426 7.75 12 7.75Z" fill="#3E3B46"/>
<path fill-rule="evenodd" clip-rule="evenodd" d="M2.25 7C2.25 4.92893 3.92893 3.25 6 3.25H18C20.0711 3.25 21.75 4.92893 21.75 7V17C21.75 19.0711 20.0711 20.75 18 20.75H15.2426C14.6459 20.75 14.0736 20.9871 13.6517 21.409L12.5303 22.5303C12.3897 22.671 12.1989 22.75 12 22.75C11.8011 22.75 11.6103 22.671 11.4697 22.5303L10.3483 21.409C9.92639 20.9871 9.3541 20.75 8.75736 20.75H6C3.92893 20.75 2.25 19.0711 2.25 17V7ZM6 4.75C4.75736 4.75 3.75 5.75736 3.75 7V17C3.75 18.2426 4.75736 19.25 6 19.25H8.75736C9.75192 19.25 10.7057 19.6451 11.409 20.3483L12 20.9393L12.591 20.3484C13.2943 19.6451 14.2481 19.25 15.2426 19.25H18C19.2426 19.25 20.25 18.2426 20.25 17V7C20.25 5.75736 19.2426 4.75 18 4.75H6Z" fill="#3E3B46"/>
</svg>
