<svg width="16" height="16" viewBox="0 0 16 16" fill="none" xmlns="http://www.w3.org/2000/svg">
<path d="M1.52925 5.13807C1.7896 5.39842 2.21171 5.39842 2.47206 5.13807L3.33398 4.27614V13.3333C3.33398 13.7015 3.63246 14 4.00065 14C4.36884 14 4.66732 13.7015 4.66732 13.3333V4.27614L5.52925 5.13807C5.7896 5.39842 6.21171 5.39842 6.47206 5.13807C6.73241 4.87772 6.73241 4.45561 6.47206 4.19526L4.47206 2.19526C4.40814 2.13134 4.33447 2.08312 4.25584 2.05059C4.17782 2.01823 4.09232 2.00027 4.00265 2L4.00065 2L3.99865 2C3.8287 2.00051 3.65891 2.0656 3.52925 2.19526L1.52925 4.19526C1.2689 4.45561 1.2689 4.87772 1.52925 5.13807Z" fill="#3E3B46"/>
<path d="M10.6673 3.33333C10.2991 3.33333 10.0007 3.63181 10.0007 4C10.0007 4.36819 10.2991 4.66667 10.6673 4.66667H13.334C13.7022 4.66667 14.0007 4.36819 14.0007 4C14.0007 3.63181 13.7022 3.33333 13.334 3.33333H10.6673Z" fill="#3E3B46"/>
<path d="M8.66732 8C8.66732 7.63181 8.96579 7.33333 9.33398 7.33333H13.334C13.7022 7.33333 14.0007 7.63181 14.0007 8C14.0007 8.36819 13.7022 8.66667 13.334 8.66667H9.33398C8.96579 8.66667 8.66732 8.36819 8.66732 8Z" fill="#3E3B46"/>
<path d="M8.00065 11.3333C7.63246 11.3333 7.33398 11.6318 7.33398 12C7.33398 12.3682 7.63246 12.6667 8.00065 12.6667H13.334C13.7022 12.6667 14.0007 12.3682 14.0007 12C14.0007 11.6318 13.7022 11.3333 13.334 11.3333H8.00065Z" fill="#3E3B46"/>
</svg>
