<svg width="16" height="16" viewBox="0 0 16 16" fill="none" xmlns="http://www.w3.org/2000/svg">
<path fill-rule="evenodd" clip-rule="evenodd" d="M7.02851 1.25257C7.63255 0.915808 8.36703 0.915809 8.97108 1.25257L14.1924 4.16357C14.2421 4.19125 14.2898 4.21653 14.3379 4.24495C14.5415 4.36516 14.6665 4.58451 14.6665 4.82156V11.4985C14.6711 11.7415 14.54 11.9805 14.3142 12.1019L8.97108 15.0808C8.36704 15.4175 7.63256 15.4175 7.02851 15.0808L1.68642 12.1024C1.4648 11.9838 1.32915 11.7534 1.33309 11.5008V4.82156C1.33309 4.58451 1.45809 4.36516 1.66167 4.24495C1.70981 4.21652 1.75751 4.19125 1.80715 4.16357L7.02851 1.25257ZM2.66642 11.1181L7.33309 13.7199V8.56032L2.66642 5.95857V11.1181ZM8.66642 13.7199L13.3331 11.1182V5.95857L8.66642 8.56034V13.7199ZM8.32356 2.42224C8.12221 2.30998 7.87738 2.30998 7.67603 2.42223L3.37254 4.82151L7.99979 7.40128L12.627 4.82151L8.32356 2.42224Z" fill="white"/>
</svg>
