<svg width="24" height="24" viewBox="0 0 24 24" fill="none" xmlns="http://www.w3.org/2000/svg">
<path fill-rule="evenodd" clip-rule="evenodd" d="M12 1.25C10.4812 1.25 9.25 2.48122 9.25 4C9.25 5.51878 10.4812 6.75 12 6.75C13.5188 6.75 14.75 5.51878 14.75 4C14.75 2.48122 13.5188 1.25 12 1.25ZM10.75 4C10.75 3.30964 11.3096 2.75 12 2.75C12.6904 2.75 13.25 3.30964 13.25 4C13.25 4.69036 12.6904 5.25 12 5.25C11.3096 5.25 10.75 4.69036 10.75 4Z" fill="#3E3B46"/>
<path d="M19 13.75L15 13.75C14.5858 13.75 14.25 13.4142 14.25 13C14.25 12.5858 14.5858 12.25 15 12.25L19 12.25C19.4142 12.25 19.75 12.5858 19.75 13C19.75 13.4142 19.4142 13.75 19 13.75Z" fill="#3E3B46"/>
<path d="M19 17.75L15 17.75C14.5858 17.75 14.25 17.4142 14.25 17C14.25 16.5858 14.5858 16.25 15 16.25L19 16.25C19.4142 16.25 19.75 16.5858 19.75 17C19.75 17.4142 19.4142 17.75 19 17.75Z" fill="#3E3B46"/>
<path d="M5 13.75L9 13.75C9.41422 13.75 9.75 13.4142 9.75 13C9.75 12.5858 9.41421 12.25 9 12.25L5 12.25C4.58579 12.25 4.25 12.5858 4.25 13C4.25 13.4142 4.58579 13.75 5 13.75Z" fill="#3E3B46"/>
<path d="M5 17.75L9 17.75C9.41422 17.75 9.75 17.4142 9.75 17C9.75 16.5858 9.41421 16.25 9 16.25L5 16.25C4.58579 16.25 4.25 16.5858 4.25 17C4.25 17.4142 4.58579 17.75 5 17.75Z" fill="#3E3B46"/>
<path fill-rule="evenodd" clip-rule="evenodd" d="M4.33541 4.32918L10.1243 7.22361C10.9053 7.61411 11.5467 8.2025 12 8.9104C12.4533 8.2025 13.0947 7.61411 13.8757 7.22361L19.6646 4.32918C20.1544 4.08428 20.75 4.45238 20.75 5V8.25H22C22.4142 8.25 22.75 8.58579 22.75 9V21C22.75 21.4142 22.4142 21.75 22 21.75H14.2426C13.6459 21.75 13.0736 21.9871 12.6517 22.409C12.4683 22.5924 12.2766 22.7501 12 22.75C11.7225 22.75 11.5323 22.593 11.3483 22.409C10.9264 21.9871 10.3541 21.75 9.75736 21.75H2C1.58579 21.75 1.25 21.4142 1.25 21V9C1.25 8.58579 1.58579 8.25 2 8.25H3.25V5C3.25 4.45238 3.84561 4.08428 4.33541 4.32918ZM21.25 9.75V20.25H14.2426C13.7241 20.25 13.2166 20.3574 12.75 20.5599V11.4721C12.75 11.0586 12.8285 10.657 12.9744 10.2851C13.2004 9.96163 13.5755 9.75 14 9.75H21.25ZM19.25 8.25H15.1771L19.25 6.21353V8.25ZM11.25 20.5599C10.7834 20.3574 10.2759 20.25 9.75736 20.25H2.75V9.75H10C10.4245 9.75 10.7996 9.96163 11.0256 10.2851C11.1715 10.657 11.25 11.0586 11.25 11.4721V20.5599ZM4.75 6.21353L8.82295 8.25H4.75V6.21353Z" fill="#3E3B46"/>
</svg>
