<svg width="16" height="16" viewBox="0 0 16 16" fill="none" xmlns="http://www.w3.org/2000/svg">
<path fill-rule="evenodd" clip-rule="evenodd" d="M8 5.33325C6.52724 5.33325 5.33333 6.52716 5.33333 7.99992C5.33333 9.47268 6.52724 10.6666 8 10.6666C9.47276 10.6666 10.6667 9.47268 10.6667 7.99992C10.6667 6.52716 9.47276 5.33325 8 5.33325ZM6.66667 7.99992C6.66667 7.26354 7.26362 6.66659 8 6.66659C8.73638 6.66659 9.33333 7.26354 9.33333 7.99992C9.33333 8.7363 8.73638 9.33325 8 9.33325C7.26362 9.33325 6.66667 8.7363 6.66667 7.99992Z" fill="#3E3B46"/>
<path fill-rule="evenodd" clip-rule="evenodd" d="M7.99997 2.33325C5.94931 2.33325 4.31098 3.36785 3.14205 4.47859C1.97143 5.59094 1.21122 6.83489 0.900761 7.39276C0.68933 7.77269 0.689329 8.22714 0.90076 8.60707C1.21122 9.16495 1.97143 10.4089 3.14205 11.5212C4.31098 12.632 5.94931 13.6666 7.99997 13.6666C10.0506 13.6666 11.689 12.632 12.8579 11.5212C14.0285 10.4089 14.7887 9.16495 15.0992 8.60707C15.3106 8.22714 15.3106 7.7727 15.0992 7.39276C14.7887 6.83489 14.0285 5.59094 12.8579 4.47859C11.689 3.36785 10.0506 2.33325 7.99997 2.33325ZM4.06049 10.5547C3.05478 9.59903 2.38052 8.51759 2.08891 7.99992C2.38052 7.48224 3.05478 6.4008 4.06049 5.44515C5.09541 4.46175 6.42116 3.66659 7.99997 3.66659C9.57877 3.66659 10.9045 4.46175 11.9394 5.44515C12.9452 6.4008 13.6194 7.48224 13.911 7.99992C13.6194 8.51759 12.9452 9.59904 11.9394 10.5547C10.9045 11.5381 9.57877 12.3333 7.99997 12.3333C6.42116 12.3333 5.09541 11.5381 4.06049 10.5547Z" fill="#3E3B46"/>
</svg>
