<svg width="24" height="24" viewBox="0 0 24 24" fill="none" xmlns="http://www.w3.org/2000/svg">
<path d="M12.0001 1.25C12.4144 1.25 12.7501 1.58579 12.7501 2V4.25L15.0001 4.25C15.4144 4.25 15.7501 4.58579 15.7501 5C15.7501 5.41421 15.4144 5.75 15.0001 5.75L12.7501 5.75V8C12.7501 8.41421 12.4144 8.75 12.0001 8.75C11.5859 8.75 11.2501 8.41421 11.2501 8V5.75L9.00014 5.75C8.58593 5.75 8.25014 5.41421 8.25014 5C8.25014 4.58579 8.58593 4.25 9.00014 4.25L11.2501 4.25V2C11.2501 1.58579 11.5859 1.25 12.0001 1.25Z" fill="#3E3B46"/>
<path d="M15.3465 7.38219C15.1434 7.74321 15.2714 8.2005 15.6324 8.40357L18.4703 9.99989L12.1227 13.5704C12.0466 13.6132 11.9537 13.6132 11.8776 13.5704L5.52994 9.99989L8.36784 8.40357C8.72886 8.2005 8.8569 7.74321 8.65383 7.38219C8.45075 7.02117 7.99347 6.89313 7.63245 7.09621L3.63245 9.34621C3.39629 9.47905 3.25014 9.72893 3.25014 9.99989C3.25014 10.2708 3.39629 10.5207 3.63245 10.6536L11.1422 14.8778C11.6749 15.1775 12.3254 15.1775 12.8581 14.8778L20.3678 10.6536C20.604 10.5207 20.7501 10.2708 20.7501 9.99989C20.7501 9.72893 20.604 9.47905 20.3678 9.34621L16.3678 7.09621C16.0068 6.89313 15.5495 7.02117 15.3465 7.38219Z" fill="#3E3B46"/>
<path d="M20.6538 13.6322C20.4507 13.2712 19.9935 13.1431 19.6324 13.3462L13.1032 17.0189C12.4183 17.4042 11.582 17.4042 10.897 17.0189L4.36783 13.3462C4.00681 13.1431 3.54952 13.2712 3.34645 13.6322C3.14338 13.9932 3.27142 14.4505 3.63244 14.6536L10.1617 18.3263C11.3032 18.9684 12.6971 18.9684 13.8386 18.3263L20.3678 14.6536C20.7288 14.4505 20.8569 13.9932 20.6538 13.6322Z" fill="#3E3B46"/>
<path d="M19.6324 17.3462C19.9935 17.1431 20.4507 17.2712 20.6538 17.6322C20.8569 17.9932 20.7288 18.4505 20.3678 18.6536L13.8386 22.3263C12.6971 22.9684 11.3032 22.9684 10.1617 22.3263L3.63244 18.6536C3.27142 18.4505 3.14338 17.9932 3.34645 17.6322C3.54952 17.2712 4.00681 17.1431 4.36783 17.3462L10.897 21.0189C11.582 21.4042 12.4183 21.4042 13.1032 21.0189L19.6324 17.3462Z" fill="#3E3B46"/>
</svg>
