<svg width="24" height="24" viewBox="0 0 24 24" fill="none" xmlns="http://www.w3.org/2000/svg">
<path fill-rule="evenodd" clip-rule="evenodd" d="M16.5 5.25C15.8786 5.25 15.3269 5.64764 15.1304 6.23717L11.4552 17.2628C11.3242 17.6558 11.5366 18.0805 11.9295 18.2115C12.3225 18.3425 12.7472 18.1301 12.8782 17.7372L13.8739 14.75H19.1261L20.1219 17.7372C20.2528 18.1301 20.6776 18.3425 21.0705 18.2115C21.4635 18.0805 21.6759 17.6558 21.5449 17.2628L17.8697 6.23717C17.6732 5.64764 17.1215 5.25 16.5 5.25ZM18.6261 13.25L16.5 6.87171L14.3739 13.25H18.6261Z" fill="#615B6F"/>
<path fill-rule="evenodd" clip-rule="evenodd" d="M6.5002 9.25C5.88682 9.25 5.33777 9.63049 5.12239 10.2048L2.48546 17.2367C2.34002 17.6245 2.53652 18.0568 2.92436 18.2022C3.3122 18.3477 3.74451 18.1512 3.88995 17.7633L4.64495 15.75H8.35545L9.11046 17.7633C9.2559 18.1512 9.68821 18.3477 10.076 18.2022C10.4639 18.0568 10.6604 17.6245 10.5149 17.2367L7.87801 10.2048C7.66264 9.63049 7.11359 9.25 6.5002 9.25ZM6.5002 10.8027L7.79295 14.25H5.20745L6.5002 10.8027Z" fill="#615B6F"/>
</svg>
