<svg width="24" height="24" viewBox="0 0 24 24" fill="none" xmlns="http://www.w3.org/2000/svg">
<path d="M13.7633 7.29771C14.1511 7.44315 14.3476 7.87546 14.2022 8.2633L11.2022 16.2633C11.0568 16.6511 10.6245 16.8476 10.2366 16.7022C9.84878 16.5568 9.65227 16.1245 9.79771 15.7366L12.7977 7.73662C12.9432 7.34878 13.3755 7.15227 13.7633 7.29771Z" fill="#3E3B46"/>
<path d="M7.46967 9.46961C7.76256 9.17672 8.23744 9.17672 8.53033 9.46961C8.82322 9.7625 8.82322 10.2374 8.53033 10.5303L7.06066 11.9999L8.53033 13.4696C8.82322 13.7625 8.82322 14.2374 8.53033 14.5303C8.23744 14.8232 7.76256 14.8232 7.46967 14.5303L5.46967 12.5303C5.17678 12.2374 5.17678 11.7625 5.46967 11.4696L7.46967 9.46961Z" fill="#3E3B46"/>
<path d="M15.4697 9.46961C15.7626 9.17672 16.2374 9.17672 16.5303 9.46961L18.5303 11.4696C18.8232 11.7625 18.8232 12.2374 18.5303 12.5303L16.5303 14.5303C16.2374 14.8232 15.7626 14.8232 15.4697 14.5303C15.1768 14.2374 15.1768 13.7625 15.4697 13.4696L16.9393 11.9999L15.4697 10.5303C15.1768 10.2374 15.1768 9.7625 15.4697 9.46961Z" fill="#3E3B46"/>
<path fill-rule="evenodd" clip-rule="evenodd" d="M5 2.25C2.92893 2.25 1.25 3.92893 1.25 6V18C1.25 20.0711 2.92893 21.75 5 21.75H19C21.0711 21.75 22.75 20.0711 22.75 18V6C22.75 3.92893 21.0711 2.25 19 2.25H5ZM2.75 6C2.75 4.75736 3.75736 3.75 5 3.75H19C20.2426 3.75 21.25 4.75736 21.25 6V18C21.25 19.2426 20.2426 20.25 19 20.25H5C3.75736 20.25 2.75 19.2426 2.75 18V6Z" fill="#3E3B46"/>
</svg>
