<svg width="24" height="24" viewBox="0 0 24 24" fill="none" xmlns="http://www.w3.org/2000/svg">
<path fill-rule="evenodd" clip-rule="evenodd" d="M12.001 7.24927C9.37762 7.24927 7.25098 9.37592 7.25098 11.9993C7.25098 14.6226 9.37762 16.7493 12.001 16.7493C14.6243 16.7493 16.751 14.6226 16.751 11.9993C16.751 9.37592 14.6243 7.24927 12.001 7.24927ZM8.75098 11.9993C8.75098 10.2043 10.2061 8.74927 12.001 8.74927C13.7959 8.74927 15.251 10.2043 15.251 11.9993C15.251 13.7942 13.7959 15.2493 12.001 15.2493C10.2061 15.2493 8.75098 13.7942 8.75098 11.9993Z" fill="#3E3B46"/>
<path fill-rule="evenodd" clip-rule="evenodd" d="M14.3833 2.62788C13.3251 0.793311 10.6773 0.793312 9.61911 2.62788L9.22589 3.30957C8.94302 3.79995 8.36589 4.039 7.81912 3.89227L7.05905 3.68829C5.01353 3.13934 3.1413 5.01157 3.69024 7.05709L3.89422 7.81717C4.04096 8.36394 3.8019 8.94107 3.31152 9.22394L2.62983 9.61716C0.795264 10.6754 0.795265 13.3231 2.62983 14.3814L3.31152 14.7746C3.8019 15.0575 4.04096 15.6346 3.89422 16.1814L3.69024 16.9414C3.1413 18.9869 5.01353 20.8592 7.05905 20.3102L7.81912 20.1063C8.36589 19.9595 8.94302 20.1986 9.22589 20.689L9.61911 21.3706C10.6773 23.2052 13.3251 23.2052 14.3833 21.3706L14.7765 20.689C15.0594 20.1986 15.6365 19.9595 16.1833 20.1063L16.9434 20.3102C18.9889 20.8592 20.8611 18.9869 20.3122 16.9414L20.1082 16.1814C19.9615 15.6346 20.2005 15.0575 20.6909 14.7746L21.3726 14.3814C23.2072 13.3231 23.2072 10.6754 21.3726 9.61716L20.6909 9.22394C20.2005 8.94107 19.9615 8.36394 20.1082 7.81717L20.3122 7.05709C20.8611 5.01157 18.9889 3.13934 16.9434 3.68829L16.1833 3.89227C15.6365 4.039 15.0594 3.79995 14.7765 3.30957L14.3833 2.62788ZM10.9184 3.37737C11.3995 2.54348 12.603 2.54348 13.084 3.37737L13.4772 4.05906C14.0995 5.1379 15.3692 5.66382 16.5721 5.34101L17.3322 5.13703C18.262 4.88751 19.113 5.73852 18.8634 6.6683L18.6595 7.42838C18.3367 8.63128 18.8626 9.90096 19.9414 10.5233L20.6231 10.9165C21.457 11.3975 21.457 12.601 20.6231 13.082L19.9414 13.4753C18.8626 14.0976 18.3367 15.3672 18.6595 16.5701L18.8634 17.3302C19.113 18.26 18.262 19.111 17.3322 18.8615L16.5721 18.6575C15.3692 18.3347 14.0995 18.8606 13.4772 19.9395L13.084 20.6211C12.603 21.455 11.3995 21.455 10.9184 20.6211L10.5252 19.9395C9.90291 18.8606 8.63323 18.3347 7.43033 18.6575L6.67026 18.8615C5.74047 19.111 4.88946 18.26 5.13898 17.3302L5.34296 16.5701C5.66578 15.3672 5.13986 14.0976 4.06102 13.4753L3.37933 13.082C2.54543 12.601 2.54543 11.3975 3.37933 10.9165L4.06102 10.5233C5.13986 9.90096 5.66578 8.63127 5.34296 7.42838L5.13898 6.6683C4.88946 5.73852 5.74047 4.88751 6.67026 5.13703L7.43033 5.34101C8.63323 5.66382 9.90291 5.1379 10.5252 4.05906L10.9184 3.37737Z" fill="#3E3B46"/>
</svg>
