<svg width="24" height="24" viewBox="0 0 24 24" fill="none" xmlns="http://www.w3.org/2000/svg">
<path d="M3.46967 19.4697C3.17678 19.7626 3.17678 20.2374 3.46967 20.5303C3.76257 20.8232 4.23744 20.8232 4.53033 20.5303L20.5303 4.53033C20.8232 4.23744 20.8232 3.76256 20.5303 3.46967C20.2374 3.17678 19.7626 3.17678 19.4697 3.46967L3.46967 19.4697Z" fill="#3E3B46"/>
<path d="M9.46967 19.4697C9.17678 19.7626 9.17678 20.2374 9.46967 20.5303C9.76256 20.8232 10.2374 20.8232 10.5303 20.5303L20.5303 10.5303C20.8232 10.2374 20.8232 9.76256 20.5303 9.46967C20.2374 9.17678 19.7626 9.17678 19.4697 9.46967L9.46967 19.4697Z" fill="#3E3B46"/>
<path d="M3.46967 14.5303C3.17678 14.2374 3.17678 13.7626 3.46967 13.4697L13.4697 3.46967C13.7626 3.17678 14.2374 3.17678 14.5303 3.46967C14.8232 3.76256 14.8232 4.23744 14.5303 4.53033L4.53033 14.5303C4.23744 14.8232 3.76256 14.8232 3.46967 14.5303Z" fill="#3E3B46"/>
<path d="M15.4697 19.4697C15.1768 19.7626 15.1768 20.2374 15.4697 20.5303C15.7626 20.8232 16.2374 20.8232 16.5303 20.5303L20.5303 16.5303C20.8232 16.2374 20.8232 15.7626 20.5303 15.4697C20.2374 15.1768 19.7626 15.1768 19.4697 15.4697L15.4697 19.4697Z" fill="#3E3B46"/>
<path d="M3.46967 8.53033C3.17678 8.23744 3.17678 7.76256 3.46967 7.46967L7.46967 3.46967C7.76257 3.17678 8.23744 3.17678 8.53033 3.46967C8.82323 3.76256 8.82323 4.23744 8.53033 4.53033L4.53033 8.53033C4.23744 8.82323 3.76256 8.82322 3.46967 8.53033Z" fill="#3E3B46"/>
</svg>
