<svg width="24" height="24" viewBox="0 0 24 24" fill="none" xmlns="http://www.w3.org/2000/svg">
<path fill-rule="evenodd" clip-rule="evenodd" d="M1.25 12C1.25 6.06294 6.06294 1.25 12 1.25C17.9371 1.25 22.75 6.06294 22.75 12C22.75 17.9371 17.9371 22.75 12 22.75C6.06294 22.75 1.25 17.9371 1.25 12ZM12 2.75C6.89137 2.75 2.75 6.89137 2.75 12C2.75 14.8315 4.02227 17.3659 6.02633 19.0627C7.10198 17.7626 8.59509 16.8187 10.3007 16.437C8.51664 15.7533 7.25 14.0246 7.25 12C7.25 9.37665 9.37665 7.25 12 7.25C14.6234 7.25 16.75 9.37665 16.75 12C16.75 14.0245 15.4835 15.7532 13.6995 16.4369C15.4051 16.8186 16.8983 17.7624 17.974 19.0624C19.9779 17.3657 21.25 14.8314 21.25 12C21.25 6.89137 17.1086 2.75 12 2.75ZM16.7508 19.9384C15.6036 18.5978 13.9009 17.75 12.0003 17.75C10.0995 17.75 8.39671 18.5979 7.24952 19.9386C8.63804 20.7713 10.2631 21.25 12 21.25C13.737 21.25 15.3622 20.7712 16.7508 19.9384ZM12 8.75C10.2051 8.75 8.75 10.2051 8.75 12C8.75 13.7949 10.2051 15.25 12 15.25C13.7949 15.25 15.25 13.7949 15.25 12C15.25 10.2051 13.7949 8.75 12 8.75Z" fill="#3E3B46"/>
</svg>
