<svg width="24" height="24" viewBox="0 0 24 24" fill="none" xmlns="http://www.w3.org/2000/svg">
<path d="M8 10C9.10457 10 10 9.10457 10 8C10 6.89543 9.10457 6 8 6C6.89543 6 6 6.89543 6 8C6 9.10457 6.89543 10 8 10Z" fill="#3E3B46"/>
<path fill-rule="evenodd" clip-rule="evenodd" d="M21.75 6V18C21.75 20.0711 20.0711 21.75 18 21.75H6C3.92893 21.75 2.25 20.0711 2.25 18V6C2.25 3.92893 3.92893 2.25 6 2.25H18C20.0711 2.25 21.75 3.92893 21.75 6ZM3.96926 18.97C3.82871 18.6763 3.75 18.3473 3.75 18L3.75 6C3.75 4.75736 4.75736 3.75 6 3.75L18 3.75C19.2426 3.75 20.25 4.75736 20.25 6V14.1893L18.4445 12.3838C17.3706 11.3099 15.6294 11.3099 14.5555 12.3838L12.5 14.4393L12.4445 14.3838C11.3706 13.3099 9.6294 13.3099 8.55546 14.3838L3.96926 18.97ZM17.3839 13.4445L20.25 16.3106V18C20.25 19.1739 19.3511 20.1378 18.204 20.2409C18.1677 20.1419 18.1098 20.0491 18.0303 19.9696L13.5607 15.4999L15.6161 13.4445C16.1043 12.9563 16.8957 12.9563 17.3839 13.4445ZM5.0299 20.0307C5.32364 20.1713 5.65263 20.25 6 20.25H16.1894L11.3839 15.4445C10.8957 14.9563 10.1043 14.9563 9.61612 15.4445L5.0299 20.0307Z" fill="#3E3B46"/>
</svg>
