<svg width="24" height="24" viewBox="0 0 24 24" fill="none" xmlns="http://www.w3.org/2000/svg">
<path d="M9 10.75L5 10.75C4.58579 10.75 4.25 10.4142 4.25 10C4.25 9.58579 4.58579 9.25001 5 9.25001L9 9.25C9.41421 9.25 9.75 9.58579 9.75 10C9.75 10.4142 9.41422 10.75 9 10.75Z" fill="#3E3B46"/>
<path d="M9 14.75L5 14.75C4.58579 14.75 4.25 14.4142 4.25 14C4.25 13.5858 4.58579 13.25 5 13.25L9 13.25C9.41421 13.25 9.75 13.5858 9.75 14C9.75 14.4142 9.41422 14.75 9 14.75Z" fill="#3E3B46"/>
<path d="M15 10.75L19 10.75C19.4142 10.75 19.75 10.4142 19.75 10C19.75 9.58579 19.4142 9.25 19 9.25L15 9.25001C14.5858 9.25001 14.25 9.58579 14.25 10C14.25 10.4142 14.5858 10.75 15 10.75Z" fill="#3E3B46"/>
<path d="M15 14.75L19 14.75C19.4142 14.75 19.75 14.4142 19.75 14C19.75 13.5858 19.4142 13.25 19 13.25L15 13.25C14.5858 13.25 14.25 13.5858 14.25 14C14.25 14.4142 14.5858 14.75 15 14.75Z" fill="#3E3B46"/>
<path fill-rule="evenodd" clip-rule="evenodd" d="M2 3.25C1.58579 3.25 1.25 3.58579 1.25 4V19C1.25 19.4142 1.58579 19.75 2 19.75H9.1459C9.99813 19.75 10.7772 20.2315 11.1584 20.9938L11.3255 21.328C11.3354 21.3483 11.3461 21.3681 11.3577 21.3873C11.405 21.4658 11.4652 21.5333 11.5345 21.5881C11.6038 21.643 11.6834 21.6861 11.7706 21.7141C11.8385 21.7359 11.9096 21.7481 11.9821 21.7499C11.998 21.7502 12.014 21.7501 12.03 21.7495C12.0983 21.7467 12.1653 21.7347 12.2294 21.7141C12.3166 21.6861 12.3962 21.643 12.4655 21.5881C12.5348 21.5333 12.595 21.4658 12.6423 21.3873C12.6539 21.3681 12.6646 21.3483 12.6745 21.328L12.8416 20.9938C13.2228 20.2315 14.0019 19.75 14.8541 19.75H22C22.4142 19.75 22.75 19.4142 22.75 19V4C22.75 3.58579 22.4142 3.25 22 3.25H16C14.3205 3.25 12.8446 4.12162 12 5.43718C11.1554 4.12162 9.67947 3.25 8 3.25H2ZM11.25 8C11.25 6.20507 9.79493 4.75 8 4.75H2.75V18.25H9.1459C9.9108 18.25 10.6403 18.4827 11.25 18.8959V8ZM12.75 18.8959C13.3597 18.4827 14.0892 18.25 14.8541 18.25H21.25V4.75H16C14.2051 4.75 12.75 6.20507 12.75 8V18.8959Z" fill="#3E3B46"/>
</svg>
