<svg width="16" height="16" viewBox="0 0 16 16" fill="none" xmlns="http://www.w3.org/2000/svg">
<path fill-rule="evenodd" clip-rule="evenodd" d="M8 5.33398C6.52724 5.33398 5.33333 6.52789 5.33333 8.00065C5.33333 9.47341 6.52724 10.6673 8 10.6673C9.47276 10.6673 10.6667 9.47341 10.6667 8.00065C10.6667 6.52789 9.47276 5.33398 8 5.33398ZM6.66667 8.00065C6.66667 7.26427 7.26362 6.66732 8 6.66732C8.73638 6.66732 9.33333 7.26427 9.33333 8.00065C9.33333 8.73703 8.73638 9.33398 8 9.33398C7.26362 9.33398 6.66667 8.73703 6.66667 8.00065Z" fill="#3E3B46"/>
<path fill-rule="evenodd" clip-rule="evenodd" d="M7.99997 2.33398C5.94931 2.33398 4.31098 3.36858 3.14205 4.47932C1.97143 5.59167 1.21122 6.83562 0.900761 7.3935C0.68933 7.77343 0.689329 8.22787 0.90076 8.60781C1.21122 9.16568 1.97143 10.4096 3.14205 11.522C4.31098 12.6327 5.94931 13.6673 7.99997 13.6673C10.0506 13.6673 11.689 12.6327 12.8579 11.522C14.0285 10.4096 14.7887 9.16568 15.0992 8.60781C15.3106 8.22788 15.3106 7.77343 15.0992 7.3935C14.7887 6.83562 14.0285 5.59167 12.8579 4.47932C11.689 3.36858 10.0506 2.33398 7.99997 2.33398ZM4.06049 10.5554C3.05478 9.59977 2.38052 8.51833 2.08891 8.00065C2.38052 7.48298 3.05478 6.40153 4.06049 5.44588C5.09541 4.46249 6.42117 3.66732 7.99997 3.66732C9.57877 3.66732 10.9045 4.46249 11.9394 5.44588C12.9452 6.40153 13.6194 7.48297 13.911 8.00065C13.6194 8.51833 12.9452 9.59977 11.9394 10.5554C10.9045 11.5388 9.57877 12.334 7.99997 12.334C6.42117 12.334 5.09541 11.5388 4.06049 10.5554Z" fill="#3E3B46"/>
</svg>
