<svg width="24" height="24" viewBox="0 0 24 24" fill="none" xmlns="http://www.w3.org/2000/svg">
<path fill-rule="evenodd" clip-rule="evenodd" d="M3.25 7C3.25 4.37665 5.37665 2.25 8 2.25C10.6234 2.25 12.75 4.37665 12.75 7C12.75 9.04174 11.4618 10.7826 9.65384 11.4542C10.9791 11.788 12.1486 12.5138 13.0311 13.4998C13.0331 13.5021 13.0352 13.5044 13.0372 13.5067C13.2504 13.7455 13.4468 13.9996 13.6245 14.2669C13.8539 14.6119 13.7602 15.0774 13.4153 15.3068C13.0703 15.5361 12.6048 15.4424 12.3755 15.0975C12.2371 14.8894 12.0844 14.6918 11.9187 14.5061C11.9169 14.5042 11.9151 14.5022 11.9134 14.5002C11.0111 13.4921 9.72763 12.8359 8.2896 12.7578C8.19373 12.7526 8.09718 12.75 8 12.75C5.1005 12.75 2.75 15.1005 2.75 18V19C2.75 19.6904 3.30964 20.25 4 20.25H12C12.4142 20.25 12.75 20.5858 12.75 21C12.75 21.4142 12.4142 21.75 12 21.75H4C2.48122 21.75 1.25 20.5188 1.25 19V18C1.25 14.8427 3.41771 12.1917 6.34603 11.4541C4.53813 10.7825 3.25 9.04169 3.25 7ZM8 3.75C6.20507 3.75 4.75 5.20507 4.75 7C4.75 8.79493 6.20507 10.25 8 10.25C9.79493 10.25 11.25 8.79493 11.25 7C11.25 5.20507 9.79493 3.75 8 3.75Z" fill="#3E3B46"/>
<path fill-rule="evenodd" clip-rule="evenodd" d="M14.25 11C14.25 8.92893 15.9289 7.25 18 7.25C20.0711 7.25 21.75 8.92893 21.75 11C21.75 12.5654 20.7908 13.9068 19.4282 14.4685C21.3537 15.0747 22.75 16.8743 22.75 19C22.75 20.5188 21.5188 21.75 20 21.75H16C14.4812 21.75 13.25 20.5188 13.25 19C13.25 16.8743 14.6463 15.0747 16.5718 14.4685C15.2092 13.9068 14.25 12.5654 14.25 11ZM18 8.75C16.7574 8.75 15.75 9.75736 15.75 11C15.75 12.2426 16.7574 13.25 18 13.25C19.2426 13.25 20.25 12.2426 20.25 11C20.25 9.75736 19.2426 8.75 18 8.75ZM18 15.75C16.2051 15.75 14.75 17.2051 14.75 19C14.75 19.6904 15.3096 20.25 16 20.25H20C20.6904 20.25 21.25 19.6904 21.25 19C21.25 17.2051 19.7949 15.75 18 15.75Z" fill="#3E3B46"/>
</svg>
