<svg width="16" height="16" viewBox="0 0 16 16" fill="none" xmlns="http://www.w3.org/2000/svg">
<path d="M10.1959 5.52925C10.4563 5.2689 10.8784 5.2689 11.1387 5.52925C11.3991 5.7896 11.3991 6.21171 11.1387 6.47206L9.61013 8.00065L11.1387 9.52925C11.3991 9.7896 11.3991 10.2117 11.1387 10.4721C10.8784 10.7324 10.4563 10.7324 10.1959 10.4721L8.19591 8.47206C7.93556 8.21171 7.93556 7.7896 8.19591 7.52925L10.1959 5.52925Z" fill="#858293"/>
<path fill-rule="evenodd" clip-rule="evenodd" d="M4.00065 1.33398H12.0007C13.4734 1.33398 14.6673 2.52789 14.6673 4.00065V12.0007C14.6673 13.4734 13.4734 14.6673 12.0007 14.6673H4.00065C2.52789 14.6673 1.33398 13.4734 1.33398 12.0007V4.00065C1.33398 2.52789 2.52789 1.33398 4.00065 1.33398ZM4.00065 2.66732C3.26427 2.66732 2.66732 3.26427 2.66732 4.00065V12.0007C2.66732 12.737 3.26427 13.334 4.00065 13.334H5.33398L5.33398 2.66732H4.00065ZM6.66732 2.66732L6.66732 13.334H12.0007C12.737 13.334 13.334 12.737 13.334 12.0007V4.00065C13.334 3.26427 12.737 2.66732 12.0007 2.66732H6.66732Z" fill="#858293"/>
</svg>
