<svg width="24" height="24" viewBox="0 0 24 24" fill="none" xmlns="http://www.w3.org/2000/svg">
<path d="M12.0303 1.96967C11.7374 1.67678 11.2626 1.67678 10.9697 1.96967C10.6768 2.26256 10.6768 2.73744 10.9697 3.03033L13.2976 5.35828C12.8753 5.28704 12.4418 5.25 12 5.25C7.71979 5.25 4.25 8.71979 4.25 13C4.25 17.2802 7.71979 20.75 12 20.75C16.2802 20.75 19.75 17.2802 19.75 13C19.75 12.5858 19.4142 12.25 19 12.25C18.5858 12.25 18.25 12.5858 18.25 13C18.25 16.4518 15.4518 19.25 12 19.25C8.54822 19.25 5.75 16.4518 5.75 13C5.75 9.54822 8.54822 6.75 12 6.75C12.3736 6.75 12.7392 6.78271 13.094 6.8453L10.9697 8.96967C10.6768 9.26256 10.6768 9.73744 10.9697 10.0303C11.2626 10.3232 11.7374 10.3232 12.0303 10.0303L15.5303 6.53033C15.8232 6.23744 15.8232 5.76256 15.5303 5.46967L12.0303 1.96967Z" fill="#615B6F"/>
</svg>
