<svg width="24" height="24" viewBox="0 0 24 24" fill="none" xmlns="http://www.w3.org/2000/svg">
<path d="M6 12.25C6.41421 12.25 6.75 12.5858 6.75 13V17C6.75 17.4142 6.41421 17.75 6 17.75C5.58579 17.75 5.25 17.4142 5.25 17V13C5.25 12.5858 5.58579 12.25 6 12.25Z" fill="#3E3B46"/>
<path d="M10.75 10C10.75 9.58579 10.4142 9.25 10 9.25C9.58579 9.25 9.25 9.58579 9.25 10V17C9.25 17.4142 9.58579 17.75 10 17.75C10.4142 17.75 10.75 17.4142 10.75 17V10Z" fill="#3E3B46"/>
<path d="M14 12.25C14.4142 12.25 14.75 12.5858 14.75 13V17C14.75 17.4142 14.4142 17.75 14 17.75C13.5858 17.75 13.25 17.4142 13.25 17V13C13.25 12.5858 13.5858 12.25 14 12.25Z" fill="#3E3B46"/>
<path d="M18.75 7C18.75 6.58579 18.4142 6.25 18 6.25C17.5858 6.25 17.25 6.58579 17.25 7V17C17.25 17.4142 17.5858 17.75 18 17.75C18.4142 17.75 18.75 17.4142 18.75 17V7Z" fill="#3E3B46"/>
<path fill-rule="evenodd" clip-rule="evenodd" d="M1.25 6C1.25 3.92893 2.92893 2.25 5 2.25H19C21.0711 2.25 22.75 3.92893 22.75 6V18C22.75 20.0711 21.0711 21.75 19 21.75H5C2.92893 21.75 1.25 20.0711 1.25 18V6ZM5 3.75C3.75736 3.75 2.75 4.75736 2.75 6V18C2.75 19.2426 3.75736 20.25 5 20.25H19C20.2426 20.25 21.25 19.2426 21.25 18V6C21.25 4.75736 20.2426 3.75 19 3.75H5Z" fill="#3E3B46"/>
</svg>
