<svg width="24" height="24" viewBox="0 0 24 24" fill="none" xmlns="http://www.w3.org/2000/svg">
<path fill-rule="evenodd" clip-rule="evenodd" d="M7.75 1.5C7.75 1.08579 7.41421 0.75 7 0.75C6.58579 0.75 6.25 1.08579 6.25 1.5V2.25H5C2.92893 2.25 1.25 3.92893 1.25 6V18C1.25 20.0711 2.92893 21.75 5 21.75H6C6.41421 21.75 6.75 21.4142 6.75 21C6.75 20.5858 6.41421 20.25 6 20.25H5C3.75736 20.25 2.75 19.2426 2.75 18V9.75H21.25V18C21.25 19.2426 20.2426 20.25 19 20.25H18C17.5858 20.25 17.25 20.5858 17.25 21C17.25 21.4142 17.5858 21.75 18 21.75H19C21.0711 21.75 22.75 20.0711 22.75 18V6C22.75 3.92893 21.0711 2.25 19 2.25H17.75V1.5C17.75 1.08579 17.4142 0.75 17 0.75C16.5858 0.75 16.25 1.08579 16.25 1.5V2.25H7.75V1.5ZM16.25 4.5V3.75H7.75V4.5C7.75 4.91421 7.41421 5.25 7 5.25C6.58579 5.25 6.25 4.91421 6.25 4.5V3.75H5C3.75736 3.75 2.75 4.75736 2.75 6V8.25H21.25V6C21.25 4.75736 20.2426 3.75 19 3.75H17.75V4.5C17.75 4.91421 17.4142 5.25 17 5.25C16.5858 5.25 16.25 4.91421 16.25 4.5Z" fill="#3E3B46"/>
<path d="M12.75 12.5C12.75 12.0858 12.4142 11.75 12 11.75C11.5858 11.75 11.25 12.0858 11.25 12.5V13.3C10.1089 13.5316 9.25 14.5405 9.25 15.75C9.25 17.1307 10.3693 18.25 11.75 18.25H13.25C13.8023 18.25 14.25 18.6977 14.25 19.25C14.25 19.8023 13.8023 20.25 13.25 20.25H10C9.58579 20.25 9.25 20.5858 9.25 21C9.25 21.4142 9.58579 21.75 10 21.75H11.25V22.5C11.25 22.9142 11.5858 23.25 12 23.25C12.4142 23.25 12.75 22.9142 12.75 22.5V21.75H13.25C14.6307 21.75 15.75 20.6307 15.75 19.25C15.75 17.8693 14.6307 16.75 13.25 16.75H11.75C11.1977 16.75 10.75 16.3023 10.75 15.75C10.75 15.1977 11.1977 14.75 11.75 14.75H14C14.4142 14.75 14.75 14.4142 14.75 14C14.75 13.5858 14.4142 13.25 14 13.25H12.75V12.5Z" fill="#3E3B46"/>
</svg>
