<svg width="24" height="24" viewBox="0 0 24 24" fill="none" xmlns="http://www.w3.org/2000/svg">
<path fill-rule="evenodd" clip-rule="evenodd" d="M8.25 8C8.25 7.58579 8.58579 7.25 9 7.25H15C15.4142 7.25 15.75 7.58579 15.75 8V14C15.75 14.4142 15.4142 14.75 15 14.75H9C8.58579 14.75 8.25 14.4142 8.25 14V8ZM9.75 8.75V13.25H14.25V8.75H9.75Z" fill="url(#paint0_linear_8911_188298)"/>
<path d="M9 17.25C8.58579 17.25 8.25 17.5858 8.25 18C8.25 18.4142 8.58579 18.75 9 18.75H15C15.4142 18.75 15.75 18.4142 15.75 18C15.75 17.5858 15.4142 17.25 15 17.25H9Z" fill="url(#paint1_linear_8911_188298)"/>
<path fill-rule="evenodd" clip-rule="evenodd" d="M4.25 5C4.25 2.92893 5.92893 1.25 8 1.25H16C18.0711 1.25 19.75 2.92893 19.75 5V19C19.75 21.0711 18.0711 22.75 16 22.75H8C5.92893 22.75 4.25 21.0711 4.25 19V5ZM8 2.75C6.75736 2.75 5.75 3.75736 5.75 5V19C5.75 20.2426 6.75736 21.25 8 21.25H16C17.2426 21.25 18.25 20.2426 18.25 19V5C18.25 3.75736 17.2426 2.75 16 2.75H14.25V3.5C14.25 3.91421 13.9142 4.25 13.5 4.25H10.5C10.0858 4.25 9.75 3.91421 9.75 3.5V2.75H8Z" fill="url(#paint2_linear_8911_188298)"/>
<defs>
<linearGradient id="paint0_linear_8911_188298" x1="19.75" y1="1.25" x2="-0.648221" y2="15.9557" gradientUnits="userSpaceOnUse">
<stop stop-color="#FFE800"/>
<stop offset="0.172134" stop-color="#FFB444"/>
<stop offset="0.463678" stop-color="#FF5E86"/>
<stop offset="0.715631" stop-color="#E24EFF"/>
<stop offset="1" stop-color="#8E53FF"/>
</linearGradient>
<linearGradient id="paint1_linear_8911_188298" x1="19.75" y1="1.25" x2="-0.648221" y2="15.9557" gradientUnits="userSpaceOnUse">
<stop stop-color="#FFE800"/>
<stop offset="0.172134" stop-color="#FFB444"/>
<stop offset="0.463678" stop-color="#FF5E86"/>
<stop offset="0.715631" stop-color="#E24EFF"/>
<stop offset="1" stop-color="#8E53FF"/>
</linearGradient>
<linearGradient id="paint2_linear_8911_188298" x1="19.75" y1="1.25" x2="-0.648221" y2="15.9557" gradientUnits="userSpaceOnUse">
<stop stop-color="#FFE800"/>
<stop offset="0.172134" stop-color="#FFB444"/>
<stop offset="0.463678" stop-color="#FF5E86"/>
<stop offset="0.715631" stop-color="#E24EFF"/>
<stop offset="1" stop-color="#8E53FF"/>
</linearGradient>
</defs>
</svg>
