<svg width="16" height="16" viewBox="0 0 16 16" fill="none" xmlns="http://www.w3.org/2000/svg">
<path d="M5.33268 15.3327C3.85992 15.3327 2.66602 14.1388 2.66602 12.666V9.33268C2.66602 8.96449 2.96449 8.66602 3.33268 8.66602C3.70087 8.66602 3.99935 8.96449 3.99935 9.33268V12.666C3.99935 13.4024 4.5963 13.9993 5.33268 13.9993H10.666C11.4024 13.9993 11.9993 13.4024 11.9993 12.666V9.33268C11.9993 8.96449 12.2978 8.66602 12.666 8.66602C13.0342 8.66602 13.3327 8.96449 13.3327 9.33268V12.666C13.3327 14.1388 12.1388 15.3327 10.666 15.3327H5.33268Z" fill="#858293"/>
<path d="M6.66602 3.66602C6.66602 4.2183 6.2183 4.66602 5.66602 4.66602C5.11373 4.66602 4.66602 4.2183 4.66602 3.66602C4.66602 3.11373 5.11373 2.66602 5.66602 2.66602C6.2183 2.66602 6.66602 3.11373 6.66602 3.66602Z" fill="#858293"/>
<path fill-rule="evenodd" clip-rule="evenodd" d="M3.33268 7.99935C2.96449 7.99935 2.66602 7.70087 2.66602 7.33268V3.33268C2.66602 1.85992 3.85992 0.666016 5.33268 0.666016H10.666C12.1388 0.666016 13.3327 1.85992 13.3327 3.33268V7.33268C13.3327 7.70087 13.0342 7.99935 12.666 7.99935H3.33268ZM3.99935 3.33268V6.66602H5.72317L7.91847 4.47071C8.69952 3.68967 9.96585 3.68966 10.7469 4.47071L11.9993 5.72317V3.33268C11.9993 2.5963 11.4024 1.99935 10.666 1.99935H5.33268C4.5963 1.99935 3.99935 2.5963 3.99935 3.33268ZM11.0566 6.66602L9.80409 5.41352C9.54374 5.15317 9.12163 5.15317 8.86128 5.41352L7.60879 6.66602H11.0566Z" fill="#858293"/>
<path d="M9.99935 10.666H5.99935C5.63116 10.666 5.33268 10.3675 5.33268 9.99935C5.33268 9.63116 5.63116 9.33268 5.99935 9.33268H9.99935C10.3675 9.33268 10.666 9.63116 10.666 9.99935C10.666 10.3675 10.3675 10.666 9.99935 10.666Z" fill="#858293"/>
<path d="M5.33268 11.9993C5.33268 11.6312 5.63116 11.3327 5.99935 11.3327H9.99935C10.3675 11.3327 10.666 11.6312 10.666 11.9993C10.666 12.3675 10.3675 12.666 9.99935 12.666H5.99935C5.63116 12.666 5.33268 12.3675 5.33268 11.9993Z" fill="#858293"/>
</svg>
