<svg width="16" height="16" viewBox="0 0 16 16" fill="none" xmlns="http://www.w3.org/2000/svg">
<path fill-rule="evenodd" clip-rule="evenodd" d="M8.00065 0.666016C8.36884 0.666016 8.66732 0.964492 8.66732 1.33268V3.99935C8.66732 4.36754 8.36884 4.66602 8.00065 4.66602C7.63246 4.66602 7.33398 4.36754 7.33398 3.99935V1.33268C7.33398 0.964492 7.63246 0.666016 8.00065 0.666016Z" fill="#858293"/>
<path opacity="0.9" fill-rule="evenodd" clip-rule="evenodd" d="M13.1862 2.81515C13.4466 3.0755 13.4466 3.49761 13.1862 3.75796L11.3006 5.64358C11.0403 5.90393 10.6182 5.90393 10.3578 5.64358C10.0975 5.38323 10.0975 4.96112 10.3578 4.70077L12.2434 2.81515C12.5038 2.5548 12.9259 2.5548 13.1862 2.81515Z" fill="#858293"/>
<path opacity="0.8" fill-rule="evenodd" clip-rule="evenodd" d="M15.334 8.00065C15.334 8.36884 15.0355 8.66732 14.6673 8.66732L12.0007 8.66732C11.6325 8.66732 11.334 8.36884 11.334 8.00065C11.334 7.63246 11.6325 7.33398 12.0007 7.33398L14.6673 7.33398C15.0355 7.33398 15.334 7.63246 15.334 8.00065Z" fill="#858293"/>
<path opacity="0.7" fill-rule="evenodd" clip-rule="evenodd" d="M13.1848 13.1862C12.9245 13.4466 12.5024 13.4466 12.242 13.1862L10.3564 11.3006C10.0961 11.0403 10.0961 10.6182 10.3564 10.3578C10.6168 10.0975 11.0389 10.0975 11.2992 10.3578L13.1848 12.2434C13.4452 12.5038 13.4452 12.9259 13.1848 13.1862Z" fill="#858293"/>
<path opacity="0.6" fill-rule="evenodd" clip-rule="evenodd" d="M8.00065 11.334C8.36884 11.334 8.66732 11.6325 8.66732 12.0007V14.6673C8.66732 15.0355 8.36884 15.334 8.00065 15.334C7.63246 15.334 7.33398 15.0355 7.33398 14.6673V12.0007C7.33398 11.6325 7.63246 11.334 8.00065 11.334Z" fill="#858293"/>
<path opacity="0.5" fill-rule="evenodd" clip-rule="evenodd" d="M5.64328 10.3562C5.90363 10.6165 5.90363 11.0386 5.64328 11.299L3.75766 13.1846C3.49731 13.4449 3.0752 13.4449 2.81485 13.1846C2.5545 12.9242 2.5545 12.5021 2.81485 12.2418L4.70047 10.3562C4.96082 10.0958 5.38293 10.0958 5.64328 10.3562Z" fill="#858293"/>
<path opacity="0.4" fill-rule="evenodd" clip-rule="evenodd" d="M4.66602 8.00065C4.66602 8.36884 4.36754 8.66732 3.99935 8.66732L1.33268 8.66732C0.964492 8.66732 0.666015 8.36884 0.666015 8.00065C0.666015 7.63246 0.964492 7.33398 1.33268 7.33398L3.99935 7.33398C4.36754 7.33398 4.66602 7.63246 4.66602 8.00065Z" fill="#858293"/>
<path opacity="0.3" fill-rule="evenodd" clip-rule="evenodd" d="M5.64383 5.64328C5.38348 5.90363 4.96137 5.90363 4.70102 5.64328L2.8154 3.75766C2.55505 3.49731 2.55505 3.0752 2.8154 2.81485C3.07575 2.5545 3.49786 2.5545 3.75821 2.81485L5.64383 4.70047C5.90418 4.96082 5.90418 5.38293 5.64383 5.64328Z" fill="#858293"/>
</svg>
