<svg width="16" height="16" viewBox="0 0 16 16" fill="none" xmlns="http://www.w3.org/2000/svg">
<path d="M2.66602 7.99935C2.66602 8.73573 3.26297 9.33268 3.99935 9.33268L7.99935 9.33268C8.73573 9.33268 9.33268 8.73573 9.33268 7.99935C9.33268 7.26297 8.73573 6.66602 7.99935 6.66602L3.99935 6.66602C3.26297 6.66602 2.66602 7.26297 2.66602 7.99935Z" fill="#3E3B46"/>
<path fill-rule="evenodd" clip-rule="evenodd" d="M3.99935 4.66602C2.1584 4.66602 0.666016 6.1584 0.666016 7.99935C0.666016 9.8403 2.1584 11.3327 3.99935 11.3327L11.9993 11.3327C13.8403 11.3327 15.3327 9.8403 15.3327 7.99935C15.3327 6.1584 13.8403 4.66602 11.9993 4.66602H3.99935ZM3.99935 9.99935C2.89478 9.99935 1.99935 9.10392 1.99935 7.99935C1.99935 6.89478 2.89478 5.99935 3.99935 5.99935L11.9993 5.99935C13.1039 5.99935 13.9993 6.89478 13.9993 7.99935C13.9993 9.10392 13.1039 9.99935 11.9993 9.99935L3.99935 9.99935Z" fill="#3E3B46"/>
</svg>
