<svg width="16" height="16" viewBox="0 0 16 16" fill="none" xmlns="http://www.w3.org/2000/svg">
<path fill-rule="evenodd" clip-rule="evenodd" d="M5.33268 14.6673L10.666 14.6673C12.1388 14.6673 13.3327 13.4734 13.3327 12.0007L13.3327 6.16241C13.3327 5.45517 13.0517 4.77689 12.5516 4.27679L10.3899 2.11503C9.88978 1.61493 9.2115 1.33398 8.50425 1.33398H5.33268C3.85992 1.33398 2.66602 2.52789 2.66602 4.00065L2.66602 12.0007C2.66602 13.4734 3.85993 14.6673 5.33268 14.6673ZM10.666 13.334L5.33268 13.334C4.5963 13.334 3.99935 12.737 3.99935 12.0007L3.99935 4.00065C3.99935 3.26427 4.5963 2.66732 5.33268 2.66732L7.99935 2.66732V5.33398C7.99935 6.07036 8.5963 6.66732 9.33268 6.66732H11.9994V12.0007C11.9994 12.737 11.4024 13.334 10.666 13.334ZM11.7108 5.33398C11.6792 5.29413 11.6451 5.25593 11.6088 5.2196L9.44706 3.05784C9.41074 3.02152 9.37254 2.98751 9.33268 2.9559V5.33398H11.7108Z" fill="#858293"/>
</svg>
