<svg width="16" height="16" viewBox="0 0 16 16" fill="none" xmlns="http://www.w3.org/2000/svg">
<path d="M4.66732 4.66732C4.29913 4.66732 4.00065 4.96579 4.00065 5.33398V6.00065C4.00065 6.36884 4.29913 6.66732 4.66732 6.66732C5.03551 6.66732 5.33398 6.36884 5.33398 6.00065H7.33398V10.6673C6.96579 10.6673 6.66732 10.9658 6.66732 11.334C6.66732 11.7022 6.96579 12.0007 7.33398 12.0007H8.66732C9.03551 12.0007 9.33398 11.7022 9.33398 11.334C9.33398 10.9658 9.03551 10.6673 8.66732 10.6673V6.00065H10.6673C10.6673 6.36884 10.9658 6.66732 11.334 6.66732C11.7022 6.66732 12.0007 6.36884 12.0007 6.00065V5.33398C12.0007 4.96579 11.7022 4.66732 11.334 4.66732H4.66732Z" fill="#858293"/>
<path fill-rule="evenodd" clip-rule="evenodd" d="M1.33398 12.0007C1.33398 13.4734 2.52789 14.6673 4.00065 14.6673H12.0007C13.4734 14.6673 14.6673 13.4734 14.6673 12.0006V4.00065C14.6673 2.52789 13.4734 1.33398 12.0007 1.33398H4.00065C2.52789 1.33398 1.33398 2.52789 1.33398 4.00065V12.0007ZM4.00065 13.334C3.26427 13.334 2.66732 12.737 2.66732 12.0007L2.66732 4.00065C2.66732 3.26427 3.26427 2.66732 4.00065 2.66732L12.0007 2.66732C12.737 2.66732 13.334 3.26427 13.334 4.00065V12.0006C13.334 12.737 12.737 13.334 12.0007 13.334H4.00065Z" fill="#858293"/>
</svg>
