<svg width="24" height="24" viewBox="0 0 24 24" fill="none" xmlns="http://www.w3.org/2000/svg">
<path fill-rule="evenodd" clip-rule="evenodd" d="M12 7.25C9.37665 7.25 7.25 9.37665 7.25 12C7.25 14.6234 9.37665 16.75 12 16.75C14.6234 16.75 16.75 14.6234 16.75 12C16.75 9.37665 14.6234 7.25 12 7.25ZM8.75 12C8.75 10.2051 10.2051 8.75 12 8.75C13.7949 8.75 15.25 10.2051 15.25 12C15.25 13.7949 13.7949 15.25 12 15.25C10.2051 15.25 8.75 13.7949 8.75 12Z" fill="white"/>
<path fill-rule="evenodd" clip-rule="evenodd" d="M14.3823 2.62861C13.3241 0.794044 10.6764 0.794044 9.61813 2.62861L9.22491 3.3103C8.94204 3.80068 8.36492 4.03974 7.81815 3.893L7.05807 3.68902C5.01255 3.14008 3.14032 5.0123 3.68927 7.05783L3.89325 7.8179C4.03998 8.36467 3.80093 8.9418 3.31054 9.22467L2.62885 9.61789C0.794288 10.6761 0.794288 13.3239 2.62885 14.3821L3.31054 14.7753C3.80093 15.0582 4.03998 15.6353 3.89325 16.1821L3.68927 16.9422C3.14032 18.9877 5.01255 20.8599 7.05807 20.311L7.81815 20.107C8.36492 19.9602 8.94204 20.1993 9.22491 20.6897L9.61813 21.3714C10.6764 23.2059 13.3241 23.2059 14.3823 21.3714L14.7756 20.6897C15.0584 20.1993 15.6356 19.9602 16.1823 20.107L16.9424 20.311C18.9879 20.8599 20.8602 18.9877 20.3112 16.9422L20.1072 16.1821C19.9605 15.6353 20.1995 15.0582 20.6899 14.7753L21.3716 14.3821C23.2062 13.3239 23.2062 10.6761 21.3716 9.61789L20.6899 9.22467C20.1995 8.9418 19.9605 8.36467 20.1072 7.8179L20.3112 7.05783C20.8602 5.0123 18.9879 3.14008 16.9424 3.68902L16.1823 3.893C15.6356 4.03974 15.0584 3.80068 14.7756 3.3103L14.3823 2.62861ZM10.9175 3.37811C11.3985 2.54421 12.602 2.54421 13.083 3.37811L13.4762 4.05979C14.0985 5.13864 15.3682 5.66456 16.5711 5.34174L17.3312 5.13776C18.261 4.88824 19.112 5.73925 18.8625 6.66903L18.6585 7.42911C18.3357 8.63201 18.8616 9.90169 19.9404 10.524L20.6221 10.9172C21.456 11.3982 21.456 12.6017 20.6221 13.0828L19.9404 13.476C18.8616 14.0983 18.3357 15.368 18.6585 16.5709L18.8625 17.3309C19.112 18.2607 18.261 19.1117 17.3312 18.8622L16.5711 18.6582C15.3682 18.3354 14.0985 18.8613 13.4762 19.9402L13.083 20.6219C12.602 21.4558 11.3985 21.4558 10.9175 20.6219L10.5242 19.9402C9.90193 18.8613 8.63225 18.3354 7.42936 18.6582L6.66928 18.8622C5.7395 19.1117 4.88848 18.2607 5.13801 17.3309L5.34198 16.5709C5.6648 15.368 5.13888 14.0983 4.06004 13.476L3.37835 13.0828C2.54446 12.6017 2.54446 11.3982 3.37835 10.9172L4.06004 10.524C5.13888 9.90169 5.6648 8.63201 5.34198 7.42911L5.13801 6.66903C4.88848 5.73925 5.7395 4.88824 6.66928 5.13776L7.42935 5.34174C8.63225 5.66456 9.90193 5.13864 10.5242 4.05979L10.9175 3.37811Z" fill="white"/>
</svg>
