<svg width="16" height="16" viewBox="0 0 16 16" fill="none" xmlns="http://www.w3.org/2000/svg">
<path d="M5.99967 7.99992C5.99967 8.55222 5.55196 8.99992 4.99967 8.99992C4.44739 8.99992 3.99967 8.55222 3.99967 7.99992C3.99967 7.44763 4.44739 6.99992 4.99967 6.99992C5.55196 6.99992 5.99967 7.44763 5.99967 7.99992Z" fill="#3E3B46"/>
<path d="M8.99967 7.99992C8.99967 8.55222 8.55196 8.99992 7.99967 8.99992C7.44739 8.99992 6.99967 8.55222 6.99967 7.99992C6.99967 7.44763 7.44739 6.99992 7.99967 6.99992C8.55196 6.99992 8.99967 7.44763 8.99967 7.99992Z" fill="#3E3B46"/>
<path d="M11.9997 7.99992C11.9997 8.55222 11.552 8.99992 10.9997 8.99992C10.4474 8.99992 9.99967 8.55222 9.99967 7.99992C9.99967 7.44763 10.4474 6.99992 10.9997 6.99992C11.552 6.99992 11.9997 7.44763 11.9997 7.99992Z" fill="#3E3B46"/>
<path fill-rule="evenodd" clip-rule="evenodd" d="M7.99967 1.33325C4.31778 1.33325 1.33301 4.31802 1.33301 7.99992C1.33301 11.6818 4.31778 14.6666 7.99967 14.6666C11.6816 14.6666 14.6663 11.6818 14.6663 7.99992C14.6663 4.31802 11.6816 1.33325 7.99967 1.33325ZM2.66634 7.99992C2.66634 5.0544 5.05416 2.66659 7.99967 2.66659C10.9452 2.66659 13.333 5.0544 13.333 7.99992C13.333 10.9454 10.9452 13.3333 7.99967 13.3333C5.05416 13.3333 2.66634 10.9454 2.66634 7.99992Z" fill="#3E3B46"/>
</svg>
