<svg width="16" height="16" viewBox="0 0 16 16" fill="none" xmlns="http://www.w3.org/2000/svg">
<path d="M6.66634 6.00008C7.03453 6.00008 7.33301 6.29856 7.33301 6.66675L7.33301 10.6667C7.33301 11.0349 7.03453 11.3334 6.66634 11.3334C6.29815 11.3334 5.99967 11.0349 5.99967 10.6667L5.99967 6.66675C5.99967 6.29856 6.29815 6.00008 6.66634 6.00008Z" fill="#3E3B46"/>
<path d="M9.99967 6.66675C9.99967 6.29856 9.7012 6.00008 9.33301 6.00008C8.96482 6.00008 8.66634 6.29856 8.66634 6.66675V10.6667C8.66634 11.0349 8.96482 11.3334 9.33301 11.3334C9.7012 11.3334 9.99967 11.0349 9.99967 10.6667L9.99967 6.66675Z" fill="#3E3B46"/>
<path fill-rule="evenodd" clip-rule="evenodd" d="M6.49967 0.666748C5.7633 0.666748 5.16634 1.2637 5.16634 2.00008V2.66675H1.99967C1.63148 2.66675 1.33301 2.96522 1.33301 3.33341C1.33301 3.7016 1.63148 4.00008 1.99967 4.00008H2.66634V12.0001C2.66634 13.4728 3.86025 14.6667 5.33301 14.6667H10.6663C12.1391 14.6667 13.333 13.4728 13.333 12.0001V4.00008H13.9997C14.3679 4.00008 14.6663 3.7016 14.6663 3.33341C14.6663 2.96522 14.3679 2.66675 13.9997 2.66675H10.4997V2.00008C10.4997 1.2637 9.90272 0.666748 9.16634 0.666748H6.49967ZM9.16634 2.66675V2.00008H6.49967V2.66675H9.16634ZM3.99967 4.00008V12.0001C3.99967 12.7365 4.59663 13.3334 5.33301 13.3334H10.6663C11.4027 13.3334 11.9997 12.7365 11.9997 12.0001V4.00008H3.99967Z" fill="#3E3B46"/>
</svg>
