<svg width="16" height="16" viewBox="0 0 16 16" fill="none" xmlns="http://www.w3.org/2000/svg">
<path d="M6.00065 8.00065C6.00065 8.55295 5.55294 9.00065 5.00065 9.00065C4.44837 9.00065 4.00065 8.55295 4.00065 8.00065C4.00065 7.44837 4.44837 7.00065 5.00065 7.00065C5.55294 7.00065 6.00065 7.44837 6.00065 8.00065Z" fill="#3E3B46"/>
<path d="M9.00065 8.00065C9.00065 8.55295 8.55294 9.00065 8.00065 9.00065C7.44837 9.00065 7.00065 8.55295 7.00065 8.00065C7.00065 7.44837 7.44837 7.00065 8.00065 7.00065C8.55294 7.00065 9.00065 7.44837 9.00065 8.00065Z" fill="#3E3B46"/>
<path d="M12.0007 8.00065C12.0007 8.55295 11.5529 9.00065 11.0007 9.00065C10.4484 9.00065 10.0007 8.55295 10.0007 8.00065C10.0007 7.44837 10.4484 7.00065 11.0007 7.00065C11.5529 7.00065 12.0007 7.44837 12.0007 8.00065Z" fill="#3E3B46"/>
<path fill-rule="evenodd" clip-rule="evenodd" d="M8.00065 1.33398C4.31875 1.33398 1.33398 4.31875 1.33398 8.00065C1.33398 11.6825 4.31875 14.6673 8.00065 14.6673C11.6825 14.6673 14.6673 11.6825 14.6673 8.00065C14.6673 4.31875 11.6825 1.33398 8.00065 1.33398ZM2.66732 8.00065C2.66732 5.05513 5.05513 2.66732 8.00065 2.66732C10.9462 2.66732 13.334 5.05513 13.334 8.00065C13.334 10.9462 10.9462 13.334 8.00065 13.334C5.05513 13.334 2.66732 10.9462 2.66732 8.00065Z" fill="#3E3B46"/>
</svg>
