<svg width="24" height="24" viewBox="0 0 24 24" fill="none" xmlns="http://www.w3.org/2000/svg">
<path d="M11.4697 0.46967C11.7626 0.176777 12.2374 0.176777 12.5303 0.46967L15.5303 3.46967C15.8232 3.76256 15.8232 4.23744 15.5303 4.53033C15.2374 4.82322 14.7626 4.82322 14.4697 4.53033L12.75 2.81066V14C12.75 14.4142 12.4142 14.75 12 14.75C11.5858 14.75 11.25 14.4142 11.25 14V2.81066L9.53033 4.53033C9.23744 4.82322 8.76256 4.82322 8.46967 4.53033C8.17678 4.23744 8.17678 3.76256 8.46967 3.46967L11.4697 0.46967Z" fill="#007CFF"/>
<path d="M7 8.75C5.75736 8.75 4.75 9.75736 4.75 11V18C4.75 19.2426 5.75736 20.25 7 20.25H17C18.2426 20.25 19.25 19.2426 19.25 18V11C19.25 9.75736 18.2426 8.75 17 8.75H15C14.5858 8.75 14.25 8.41421 14.25 8C14.25 7.58579 14.5858 7.25 15 7.25H17C19.0711 7.25 20.75 8.92893 20.75 11V18C20.75 20.0711 19.0711 21.75 17 21.75H7C4.92893 21.75 3.25 20.0711 3.25 18V11C3.25 8.92893 4.92893 7.25 7 7.25H9C9.41421 7.25 9.75 7.58579 9.75 8C9.75 8.41421 9.41421 8.75 9 8.75H7Z" fill="#007CFF"/>
</svg>
