<svg width="24" height="24" viewBox="0 0 24 24" fill="none" xmlns="http://www.w3.org/2000/svg">
<path fill-rule="evenodd" clip-rule="evenodd" d="M19 6C18.4477 6 18 6.44772 18 7V17C18 17.5523 18.4477 18 19 18H20C20.5523 18 21 17.5523 21 17V7C21 6.44772 20.5523 6 20 6H19ZM13 10C13 9.44772 13.4477 9 14 9H15C15.5523 9 16 9.44772 16 10V17C16 17.5523 15.5523 18 15 18H14C13.4477 18 13 17.5523 13 17V10ZM9 12C8.44772 12 8 12.4477 8 13V17C8 17.5523 8.44772 18 9 18H10C10.5523 18 11 17.5523 11 17V13C11 12.4477 10.5523 12 10 12H9ZM4 14C3.44772 14 3 14.4477 3 15V17C3 17.5523 3.44772 18 4 18H5C5.55228 18 6 17.5523 6 17V15C6 14.4477 5.55228 14 5 14H4Z" fill="#615B6F"/>
</svg>
