<svg width="24" height="24" viewBox="0 0 24 24" fill="none" xmlns="http://www.w3.org/2000/svg">
<path fill-rule="evenodd" clip-rule="evenodd" d="M12.7949 20.1676C12.9088 20.031 13.1058 19.8308 13.416 19.624C14.0295 19.215 15.1312 18.75 17 18.75C18.8688 18.75 19.9705 19.215 20.584 19.624C21.1238 19.9839 21.3208 20.322 21.335 20.3468C21.4933 20.6505 21.8379 20.8089 22.1723 20.7299C22.5108 20.65 22.75 20.3478 22.75 20V6.23607C22.75 5.97329 22.6903 5.64733 22.4747 5.35632C21.9598 4.66161 20.4613 3.25 17 3.25C14.8688 3.25 13.4705 3.78496 12.584 4.37596C12.3532 4.5298 12.1601 4.68548 12 4.83315C11.8399 4.68548 11.6468 4.5298 11.416 4.37596C10.5295 3.78496 9.13124 3.25 7 3.25C3.5387 3.25 2.04018 4.66161 1.52533 5.35631C1.30965 5.64733 1.25 5.97329 1.25 6.23607V20C1.25 20.3478 1.48916 20.65 1.82769 20.7299C2.16205 20.8089 2.50668 20.6505 2.66499 20.3468C2.67101 20.3363 2.7106 20.2688 2.79492 20.1676C2.9088 20.031 3.10581 19.8308 3.41603 19.624C4.02953 19.215 5.13124 18.75 7 18.75C8.86876 18.75 9.97047 19.215 10.584 19.624C10.8942 19.8308 11.0912 20.031 11.2051 20.1676C11.4301 20.4377 11.5954 20.7498 12 20.7502C12.4012 20.7505 12.5716 20.4356 12.7949 20.1676ZM2.75 6.23607C2.75 6.2311 2.75014 6.22679 2.75034 6.22314C3.0195 5.87422 4.09324 4.75 7 4.75C8.86876 4.75 9.97047 5.21504 10.584 5.62404C10.9397 5.86117 11.1462 6.08903 11.25 6.2236V18.2698C10.3582 17.7224 9.0027 17.25 7 17.25C4.9973 17.25 3.6418 17.7224 2.75 18.2698V6.23607ZM12.75 18.2698V6.2236C12.8538 6.08904 13.0603 5.86117 13.416 5.62404C14.0295 5.21504 15.1312 4.75 17 4.75C19.9068 4.75 20.9805 5.87422 21.2497 6.22314C21.2499 6.22679 21.25 6.2311 21.25 6.23607V18.2698C20.3582 17.7224 19.0027 17.25 17 17.25C14.9973 17.25 13.6418 17.7224 12.75 18.2698Z" fill="#007CFF"/>
</svg>
