<svg width="96" height="96" viewBox="0 0 96 96" fill="none" xmlns="http://www.w3.org/2000/svg">
<path d="M32 40C36.4183 40 40 36.4183 40 32C40 27.5817 36.4183 24 32 24C27.5817 24 24 27.5817 24 32C24 36.4183 27.5817 40 32 40Z" fill="#BEBACD"/>
<path fill-rule="evenodd" clip-rule="evenodd" d="M87 24V72C87 80.2843 80.2843 87 72 87H24C15.7157 87 9 80.2843 9 72V24C9 15.7157 15.7157 9 24 9H72C80.2843 9 87 15.7157 87 24ZM15.877 75.8801C15.3148 74.7052 15 73.3894 15 72L15 24C15 19.0294 19.0294 15 24 15L72 15C76.9706 15 81 19.0294 81 24V56.7571L73.7782 49.5353C69.4824 45.2395 62.5176 45.2395 58.2218 49.5353L50 57.7571L49.7782 57.5353C45.4824 53.2395 38.5176 53.2395 34.2218 57.5353L15.877 75.8801ZM69.5355 53.7779L81 65.2424V72C81 76.6955 77.4042 80.5511 72.8161 80.9635C72.6707 80.5676 72.4391 80.1963 72.1213 79.8784L54.2426 61.9998L62.4645 53.7779C64.4171 51.8253 67.5829 51.8253 69.5355 53.7779ZM20.1196 80.1228C21.2945 80.6851 22.6105 81 24 81H64.7576L45.5355 61.7779C43.5829 59.8253 40.4171 59.8253 38.4645 61.7779L20.1196 80.1228Z" fill="#BEBACD"/>
</svg>
