<svg width="24" height="24" viewBox="0 0 24 24" fill="none" xmlns="http://www.w3.org/2000/svg">
<path fill-rule="evenodd" clip-rule="evenodd" d="M13.8387 3.67349C12.6972 3.03136 11.3033 3.03136 10.1618 3.67349L3.63257 7.34617C3.39641 7.47901 3.25027 7.7289 3.25027 7.99985C3.25027 8.27081 3.39641 8.52069 3.63257 8.65353L11.1423 12.8778C11.675 13.1774 12.3255 13.1774 12.8582 12.8778L20.368 8.65353C20.6041 8.52069 20.7503 8.27081 20.7503 7.99985C20.7503 7.7289 20.6041 7.47901 20.368 7.34617L13.8387 3.67349ZM10.8972 4.98085C11.5821 4.59558 12.4184 4.59558 13.1034 4.98085L18.4705 7.99985L12.1228 11.5704C12.0467 11.6132 11.9538 11.6132 11.8777 11.5704L5.53006 7.99985L10.8972 4.98085Z" fill="#3E3B46"/>
<path d="M20.6538 11.6322C20.4507 11.2712 19.9935 11.1431 19.6324 11.3462L13.1032 15.0189C12.4183 15.4042 11.582 15.4042 10.897 15.0189L4.36783 11.3462C4.00681 11.1431 3.54952 11.2712 3.34645 11.6322C3.14338 11.9932 3.27142 12.4505 3.63244 12.6536L10.1617 16.3263C11.3032 16.9684 12.6971 16.9684 13.8386 16.3263L20.3678 12.6536C20.7288 12.4505 20.8569 11.9932 20.6538 11.6322Z" fill="#3E3B46"/>
<path d="M19.6324 15.3462C19.9935 15.1431 20.4507 15.2712 20.6538 15.6322C20.8569 15.9932 20.7288 16.4505 20.3678 16.6536L13.8386 20.3263C12.6971 20.9684 11.3032 20.9684 10.1617 20.3263L3.63244 16.6536C3.27142 16.4505 3.14338 15.9932 3.34645 15.6322C3.54952 15.2712 4.00681 15.1431 4.36783 15.3462L10.897 19.0189C11.582 19.4042 12.4183 19.4042 13.1032 19.0189L19.6324 15.3462Z" fill="#3E3B46"/>
</svg>
