<svg width="24" height="24" viewBox="0 0 24 24" fill="none" xmlns="http://www.w3.org/2000/svg">
<path fill-rule="evenodd" clip-rule="evenodd" d="M12.0004 8.38832C14.3219 8.38842 16.5546 9.28135 18.2371 10.8826C18.3638 11.0062 18.5663 11.0046 18.691 10.8791L19.9021 9.65554C19.9653 9.59186 20.0005 9.5056 20 9.41585C19.9995 9.3261 19.9632 9.24025 19.8993 9.17732C15.4834 4.94089 8.51678 4.94089 4.10086 9.17732C4.03689 9.24021 4.0006 9.32602 4.00001 9.41578C3.99942 9.50553 4.03458 9.59181 4.09772 9.65554L5.30914 10.8791C5.43384 11.0048 5.6365 11.0064 5.76312 10.8826C7.44579 9.28125 9.67874 8.38831 12.0004 8.38832ZM12.0004 12.369C13.2759 12.3689 14.5059 12.8435 15.4514 13.7005C15.5793 13.8222 15.7807 13.8195 15.9054 13.6946L17.115 12.471C17.1787 12.4069 17.2141 12.3198 17.2132 12.2293C17.2122 12.1389 17.1751 12.0525 17.1101 11.9897C14.231 9.30871 9.77231 9.30871 6.89318 11.9897C6.82814 12.0525 6.79104 12.1389 6.79018 12.2294C6.78933 12.3199 6.8248 12.407 6.88864 12.471L8.09797 13.6946C8.22263 13.8195 8.42407 13.8222 8.55195 13.7005C9.49679 12.844 10.7258 12.3695 12.0004 12.369ZM14.4236 15.0473C14.4255 15.138 14.3899 15.2254 14.3252 15.289L12.2327 17.4029C12.1713 17.465 12.0877 17.5 12.0004 17.5C11.9132 17.5 11.8296 17.465 11.7682 17.4029L9.67537 15.289C9.61072 15.2254 9.57515 15.1379 9.57707 15.0472C9.57899 14.9565 9.61822 14.8705 9.6855 14.8097C11.0218 13.6783 12.979 13.6783 14.3154 14.8097C14.3826 14.8706 14.4218 14.9565 14.4236 15.0473Z" fill="#615B6F"/>
</svg>
