<svg width="16" height="16" viewBox="0 0 16 16" fill="none" xmlns="http://www.w3.org/2000/svg">
<path d="M6.66732 5.99935C7.03551 5.99935 7.33398 6.29783 7.33398 6.66602L7.33398 10.666C7.33398 11.0342 7.03551 11.3327 6.66732 11.3327C6.29913 11.3327 6.00065 11.0342 6.00065 10.666L6.00065 6.66602C6.00065 6.29783 6.29913 5.99935 6.66732 5.99935Z" fill="#3E3B46"/>
<path d="M10.0007 6.66602C10.0007 6.29783 9.70217 5.99935 9.33398 5.99935C8.96579 5.99935 8.66732 6.29783 8.66732 6.66602V10.666C8.66732 11.0342 8.96579 11.3327 9.33398 11.3327C9.70217 11.3327 10.0007 11.0342 10.0007 10.666L10.0007 6.66602Z" fill="#3E3B46"/>
<path fill-rule="evenodd" clip-rule="evenodd" d="M6.50065 0.666016C5.76427 0.666016 5.16732 1.26297 5.16732 1.99935V2.66602H2.00065C1.63246 2.66602 1.33398 2.96449 1.33398 3.33268C1.33398 3.70087 1.63246 3.99935 2.00065 3.99935H2.66732V11.9993C2.66732 13.4721 3.86123 14.666 5.33398 14.666H10.6673C12.1401 14.666 13.334 13.4721 13.334 11.9993V3.99935H14.0007C14.3688 3.99935 14.6673 3.70087 14.6673 3.33268C14.6673 2.96449 14.3688 2.66602 14.0007 2.66602H10.5007V1.99935C10.5007 1.26297 9.9037 0.666016 9.16732 0.666016H6.50065ZM9.16732 2.66602V1.99935H6.50065V2.66602H9.16732ZM4.00065 3.99935V11.9993C4.00065 12.7357 4.5976 13.3327 5.33398 13.3327H10.6673C11.4037 13.3327 12.0007 12.7357 12.0007 11.9993V3.99935H4.00065Z" fill="#3E3B46"/>
</svg>
