<svg width="16" height="16" viewBox="0 0 16 16" fill="none" xmlns="http://www.w3.org/2000/svg">
<path d="M10.1954 5.52851C10.4558 5.26816 10.8779 5.26816 11.1382 5.52851C11.3986 5.78886 11.3986 6.21097 11.1382 6.47132L9.60964 7.99992L11.1382 9.52851C11.3986 9.78886 11.3986 10.211 11.1382 10.4713C10.8779 10.7317 10.4558 10.7317 10.1954 10.4713L8.19543 8.47132C7.93508 8.21097 7.93508 7.78886 8.19543 7.52852L10.1954 5.52851Z" fill="#858293"/>
<path fill-rule="evenodd" clip-rule="evenodd" d="M4.00016 1.33325H12.0002C13.4729 1.33325 14.6668 2.52716 14.6668 3.99992V11.9999C14.6668 13.4727 13.4729 14.6666 12.0002 14.6666H4.00016C2.5274 14.6666 1.3335 13.4727 1.3335 11.9999V3.99992C1.3335 2.52716 2.5274 1.33325 4.00016 1.33325ZM4.00016 2.66659C3.26378 2.66659 2.66683 3.26354 2.66683 3.99992V11.9999C2.66683 12.7363 3.26378 13.3333 4.00016 13.3333H5.3335L5.3335 2.66659H4.00016ZM6.66683 2.66659L6.66683 13.3333H12.0002C12.7365 13.3333 13.3335 12.7363 13.3335 11.9999V3.99992C13.3335 3.26354 12.7365 2.66659 12.0002 2.66659H6.66683Z" fill="#858293"/>
</svg>
