<svg width="16" height="16" viewBox="0 0 16 16" fill="none" xmlns="http://www.w3.org/2000/svg">
<path d="M5.33268 11.9993C5.33268 11.6312 5.63116 11.3327 5.99935 11.3327H9.99935C10.3675 11.3327 10.666 11.6312 10.666 11.9993C10.666 12.3675 10.3675 12.666 9.99935 12.666H5.99935C5.63116 12.666 5.33268 12.3675 5.33268 11.9993Z" fill="#858293"/>
<path fill-rule="evenodd" clip-rule="evenodd" d="M5.99935 4.66602C5.63116 4.66602 5.33268 4.96449 5.33268 5.33268V9.33268C5.33268 9.70087 5.63116 9.99935 5.99935 9.99935H9.99935C10.3675 9.99935 10.666 9.70087 10.666 9.33268V5.33268C10.666 4.96449 10.3675 4.66602 9.99935 4.66602H5.99935ZM6.66602 8.66602V5.99935H9.33268V8.66602H6.66602Z" fill="#858293"/>
<path fill-rule="evenodd" clip-rule="evenodd" d="M5.33268 0.666016C3.85992 0.666016 2.66602 1.85992 2.66602 3.33268V12.666C2.66602 14.1388 3.85992 15.3327 5.33268 15.3327H10.666C12.1388 15.3327 13.3327 14.1388 13.3327 12.666V3.33268C13.3327 1.85992 12.1388 0.666016 10.666 0.666016H5.33268ZM3.99935 3.33268C3.99935 2.5963 4.5963 1.99935 5.33268 1.99935H6.33268V2.33268C6.33268 2.70087 6.63116 2.99935 6.99935 2.99935H8.99935C9.36754 2.99935 9.66602 2.70087 9.66602 2.33268V1.99935H10.666C11.4024 1.99935 11.9993 2.5963 11.9993 3.33268V12.666C11.9993 13.4024 11.4024 13.9993 10.666 13.9993H5.33268C4.5963 13.9993 3.99935 13.4024 3.99935 12.666V3.33268Z" fill="#858293"/>
</svg>
