<svg width="16" height="16" viewBox="0 0 16 16" fill="none" xmlns="http://www.w3.org/2000/svg">
<path d="M5.33268 15.3327C3.85992 15.3327 2.66602 14.1388 2.66602 12.666V7.99935C2.66602 7.63116 2.96449 7.33268 3.33268 7.33268C3.70087 7.33268 3.99935 7.63116 3.99935 7.99935V12.666C3.99935 13.4024 4.5963 13.9993 5.33268 13.9993H10.666C11.4024 13.9993 11.9993 13.4024 11.9993 12.666V7.99935C11.9993 7.63116 12.2978 7.33268 12.666 7.33268C13.0342 7.33268 13.3327 7.63116 13.3327 7.99935V12.666C13.3327 14.1388 12.1388 15.3327 10.666 15.3327H5.33268Z" fill="#858293"/>
<path d="M5.99935 4.33268C5.63116 4.33268 5.33268 4.03421 5.33268 3.66602C5.33268 3.29783 5.63116 2.99935 5.99935 2.99935H9.99935C10.3675 2.99935 10.666 3.29783 10.666 3.66602C10.666 4.03421 10.3675 4.33268 9.99935 4.33268H5.99935Z" fill="#858293"/>
<path fill-rule="evenodd" clip-rule="evenodd" d="M3.33268 6.66602C2.96449 6.66602 2.66602 6.36754 2.66602 5.99935V3.33268C2.66602 1.85992 3.85992 0.666016 5.33268 0.666016H10.666C12.1388 0.666016 13.3327 1.85992 13.3327 3.33268V5.99935C13.3327 6.36754 13.0342 6.66602 12.666 6.66602H3.33268ZM3.99935 3.33268V5.33268H11.9993V3.33268C11.9993 2.5963 11.4024 1.99935 10.666 1.99935H5.33268C4.5963 1.99935 3.99935 2.5963 3.99935 3.33268Z" fill="#858293"/>
</svg>
