<svg width="16" height="16" viewBox="0 0 16 16" fill="none" xmlns="http://www.w3.org/2000/svg">
<path fill-rule="evenodd" clip-rule="evenodd" d="M5.33268 2.66602C4.96449 2.66602 4.66602 2.96449 4.66602 3.33268V5.99935C4.66602 6.36754 4.96449 6.66602 5.33268 6.66602H10.666C11.0342 6.66602 11.3327 6.36754 11.3327 5.99935V3.33268C11.3327 2.96449 11.0342 2.66602 10.666 2.66602H5.33268ZM5.99935 5.33268V3.99935H9.99935V5.33268H5.99935Z" fill="#858293"/>
<path fill-rule="evenodd" clip-rule="evenodd" d="M5.33268 0.666016C3.85992 0.666016 2.66602 1.85992 2.66602 3.33268V12.666C2.66602 14.1388 3.85992 15.3327 5.33268 15.3327H10.666C12.1388 15.3327 13.3327 14.1388 13.3327 12.666V3.33268C13.3327 1.85992 12.1388 0.666016 10.666 0.666016H5.33268ZM3.99935 3.33268C3.99935 2.5963 4.5963 1.99935 5.33268 1.99935H10.666C11.4024 1.99935 11.9993 2.5963 11.9993 3.33268V12.666C11.9993 13.4024 11.4024 13.9993 10.666 13.9993H5.33268C4.5963 13.9993 3.99935 13.4024 3.99935 12.666V3.33268Z" fill="#858293"/>
</svg>
