<svg width="112" height="16" viewBox="0 0 112 16" fill="none" xmlns="http://www.w3.org/2000/svg">
<path fill-rule="evenodd" clip-rule="evenodd" d="M0 8C0 3.5871 3.5871 0 8 0C12.4129 0 16 3.5871 16 8C16 12.4129 12.4129 16 8 16C3.5871 16 0 12.4129 0 8ZM3.5871 7.97419C3.5871 10.4258 5.54839 12.4129 8 12.4129C10.4258 12.4387 12.4129 10.4516 12.4129 8C12.4129 5.54839 10.4258 3.53548 8 3.53548C5.57419 3.53548 3.5871 5.52258 3.5871 7.97419ZM8.00028 4.49033C6.06479 4.49033 4.51641 6.06453 4.51641 8.00001C4.51641 9.93549 6.06479 11.4839 8.00028 11.4839C9.93576 11.4839 11.4841 9.90969 11.4841 7.9742C11.4841 6.03872 9.90995 4.49033 8.00028 4.49033ZM8.00028 10.9678C6.37447 10.9678 5.03254 9.65162 5.03254 8.00001C5.03254 6.3484 6.34866 5.03227 8.00028 5.03227C9.62608 5.03227 10.968 6.3484 10.968 8.00001C10.968 9.65162 9.62608 10.9678 8.00028 10.9678ZM5.7293 8.02575C5.7293 6.78704 6.73575 5.75478 7.97446 5.75478C9.23897 5.72898 10.2454 6.73543 10.2454 7.99994C10.2454 9.23865 9.23897 10.2709 8.00026 10.2709C6.76155 10.2709 5.7293 9.26446 5.7293 8.02575ZM6.81317 7.99994C6.81317 8.67091 7.3293 9.18704 7.97446 9.18704C8.61962 9.16123 9.13575 8.6451 9.13575 7.99994C9.13575 7.32898 8.61962 6.81285 7.97446 6.81285C7.3293 6.81285 6.81317 7.32898 6.81317 7.99994ZM71.5143 15.1171V0L82.1249 10.8094V0.963211H84.3297V16L73.7191 5.21739V15.1171H71.5143ZM32.1585 7.73243H38.2217V8.18728C38.2493 9.15049 38.1115 10.0869 37.8359 11.0234C37.5603 11.7993 37.1193 12.5217 36.5681 13.1371C35.2728 14.5819 33.3987 15.4114 31.4144 15.3579C29.43 15.3846 27.5284 14.6087 26.178 13.2174C24.7448 11.8528 23.9732 9.97993 24.0007 8.02675C23.9732 6.07357 24.7724 4.20066 26.2055 2.83611C28.4654 0.668889 31.8829 0.0802604 34.7767 1.36454C35.8515 1.92641 36.7886 2.67558 37.5603 3.58528L35.9893 5.03009C34.8043 3.47825 33.3436 2.70233 31.6349 2.70233C30.1742 2.67558 28.7686 3.23745 27.7489 4.25417C26.7016 5.2709 26.1504 6.63544 26.178 8.08026C26.1228 9.57859 26.7843 10.9966 27.9142 11.9866C28.8513 12.8696 30.119 13.3779 31.4419 13.4047C32.5168 13.4047 33.5365 13.0301 34.3633 12.3344C35.1901 11.6923 35.7137 10.7558 35.7964 9.73912H32.1585V7.73243ZM45.8834 2.96982H51.7261V0.963135H43.6786V15.117H51.7261V13.1103H45.8834V8.37451H51.5608V6.36782H45.8834V2.96982ZM59.8288 2.96982H65.6715V0.963135H57.624V15.117H65.6715V13.1103H59.8288V8.37451H65.5062V6.36782H59.8288V2.96982ZM97.9995 2.96982H92.1568V6.36782H97.8341V8.37451H92.1568V13.1103H97.9995V15.117H89.952V0.963135H97.9995V2.96982ZM112 2.96982H106.157V6.36782H111.835V8.37451H106.157V13.1103H112V15.117H103.952V0.963135H112V2.96982Z" fill="#3E3B46"/>
</svg>
