<svg width="208" height="16" viewBox="0 0 208 16" fill="none" xmlns="http://www.w3.org/2000/svg">
<path fill-rule="evenodd" clip-rule="evenodd" d="M14.7802 13.9996C13.9551 14.0082 13.1366 13.8509 12.3735 13.537C11.6693 13.245 11.0301 12.8161 10.493 12.2754C9.96718 11.7242 9.55265 11.0769 9.27214 10.3689C8.96736 9.61661 8.81473 8.81144 8.82308 7.99989C8.81473 7.18833 8.96736 6.38316 9.27214 5.63083C9.55106 4.92413 9.96583 4.27884 10.493 3.73138C11.0279 3.18624 11.6675 2.75472 12.3735 2.46275C13.9185 1.84575 15.6419 1.84575 17.1869 2.46275C17.8929 2.75472 18.5326 3.18624 19.0674 3.73138C19.5945 4.28032 20.0113 4.92511 20.2953 5.63083C20.5937 6.3848 20.7438 7.18916 20.7374 7.99989C20.7438 8.81061 20.5937 9.61497 20.2953 10.3689C20.0097 11.0759 19.5931 11.7227 19.0674 12.2754C18.5304 12.8161 17.8912 13.245 17.1869 13.537C16.424 13.8514 15.6055 14.0088 14.7802 13.9996ZM14.7802 12.5488C15.3669 12.5586 15.9489 12.4444 16.4883 12.2137C17.0276 11.983 17.512 11.641 17.9097 11.21C18.2934 10.7904 18.5914 10.3 18.7867 9.76616C19.1824 8.63143 19.1824 7.39638 18.7867 6.26165C18.5898 5.72862 18.292 5.23843 17.9097 4.81778C17.2856 4.17831 16.4821 3.74287 15.6052 3.56893C14.7284 3.395 13.8193 3.49074 12.998 3.84353C12.4827 4.07524 12.0199 4.40903 11.6376 4.82469C11.2552 5.24034 10.9613 5.7292 10.7737 6.26165C10.369 7.39484 10.369 8.63297 10.7737 9.76616C10.9632 10.3012 11.2592 10.7923 11.6438 11.21C12.0274 11.6197 12.4874 11.9506 12.998 12.1843C13.559 12.4321 14.1668 12.5565 14.7802 12.5488Z" fill="#3E3B46"/>
<path fill-rule="evenodd" clip-rule="evenodd" d="M0 2.29448H4.01353C4.63179 2.28055 5.2468 2.3877 5.82383 2.60988C6.2503 2.77792 6.63385 3.03893 6.9465 3.37387C7.21519 3.66845 7.4121 4.02106 7.52186 4.4042C7.62493 4.76209 7.67921 5.13223 7.68324 5.50462C7.67908 5.87929 7.6248 6.25173 7.52186 6.61204C7.40893 6.99386 7.2124 7.3458 6.9465 7.64237C6.63535 7.97738 6.25122 8.23638 5.82383 8.39935C5.24682 8.62037 4.63111 8.72287 4.01353 8.70074H1.55068V13.7262H0V2.29448ZM1.55068 7.32697H3.5785C3.87949 7.32595 4.17988 7.30016 4.47663 7.24987C4.74991 7.20754 5.01357 7.11738 5.25548 6.98352C5.48756 6.85319 5.67932 6.66164 5.8098 6.42981C5.96101 6.13801 6.03355 5.8119 6.0203 5.48359C6.03463 5.15742 5.96199 4.8333 5.8098 4.54438C5.67576 4.32071 5.48441 4.13682 5.25548 4.01169C5.00795 3.87927 4.73994 3.78924 4.4626 3.74535C4.16525 3.70084 3.86512 3.67742 3.56446 3.67526H1.55068V7.32697Z" fill="#3E3B46"/>
<path d="M23.1124 2.29456H21.4985L24.8174 13.7053H26.4663L29.2169 4.39026L32.0235 13.7053H33.6444L36.9633 2.29456H35.3494L32.8234 11.4063L30.136 2.29456H28.3608L25.6735 11.4063H25.6384L23.1124 2.29456Z" fill="#3E3B46"/>
<path d="M39.4268 2.29456H46.8013V3.74543H40.9774V7.14481H46.3943V8.59568H40.9774V12.2544H47.089V13.7053H39.4268V2.29456Z" fill="#3E3B46"/>
<path fill-rule="evenodd" clip-rule="evenodd" d="M54.2876 2.29442H50.2671V13.7332H51.8037V8.70769H53.5298L56.4347 13.7332H58.3713L55.1296 8.52546C55.5373 8.49141 55.9336 8.37454 56.2944 8.18201C56.63 8.00202 56.9316 7.76482 57.1855 7.48111C57.4239 7.2107 57.6116 6.89969 57.7398 6.56293C57.8716 6.2257 57.9383 5.86658 57.9363 5.50456C57.9323 5.13218 57.878 4.76204 57.7749 4.40414C57.6681 4.0198 57.4708 3.66654 57.1995 3.37381C56.8869 3.03887 56.5034 2.77786 56.0769 2.60983C55.5065 2.38999 54.8989 2.28287 54.2876 2.29442ZM53.8526 7.32691H51.8178V3.64717H53.8526C54.1509 3.64933 54.4487 3.67276 54.7437 3.71726C55.0211 3.76115 55.2891 3.85118 55.5366 3.9836C55.7692 4.11642 55.9609 4.31035 56.0909 4.54432C56.2431 4.83325 56.3158 5.15737 56.3014 5.48354C56.3147 5.81185 56.2421 6.13795 56.0909 6.42976C55.9604 6.66159 55.7687 6.85314 55.5366 6.98347C55.2904 7.11889 55.0218 7.2091 54.7437 7.24981C54.4493 7.3001 54.1513 7.32589 53.8526 7.32691Z" fill="#3E3B46"/>
<path d="M61.0791 2.29456H68.4536V3.74543H62.6298V7.14481H68.0537V8.59568H62.6298V12.2544H68.7483V13.7053H61.0791V2.29456Z" fill="#3E3B46"/>
<path fill-rule="evenodd" clip-rule="evenodd" d="M75.6393 2.29445H71.6539L71.6328 13.6841H75.3587C76.2822 13.7021 77.2003 13.5378 78.0601 13.2005C78.7953 12.9106 79.4638 12.4742 80.0247 11.9179C80.5442 11.402 80.9504 10.7838 81.2176 10.1025C81.482 9.43272 81.62 8.7198 81.6245 7.99981C81.6199 7.6115 81.58 7.22441 81.5053 6.84332C81.4293 6.41091 81.307 5.98792 81.1404 5.58169C80.9592 5.14492 80.7234 4.73279 80.4387 4.35511C80.1323 3.93383 79.7576 3.56664 79.3301 3.26871C78.841 2.95444 78.3061 2.71798 77.7443 2.56781C77.0596 2.37557 76.3505 2.28349 75.6393 2.29445ZM75.1552 12.2543H73.2046V3.74532H75.5271C76.2957 3.71827 77.06 3.87192 77.7584 4.1939C78.2904 4.46123 78.7556 4.84447 79.1196 5.31535C79.4476 5.72937 79.6865 6.20661 79.8213 6.71716C79.9265 7.13702 79.9853 7.56714 79.9967 7.99981C80.0124 8.64258 79.8804 9.28039 79.6108 9.86421C79.3631 10.3806 79.0036 10.8354 78.5583 11.1959C78.1012 11.5553 77.5796 11.8241 77.0216 11.988C76.4163 12.1695 75.7872 12.2593 75.1552 12.2543Z" fill="#3E3B46"/>
<path fill-rule="evenodd" clip-rule="evenodd" d="M89.2627 2.29461H93.2341C93.7078 2.28773 94.1801 2.34671 94.6375 2.46983C95.0322 2.57461 95.4036 2.75296 95.7321 2.99551C96.0303 3.23256 96.2704 3.53465 96.4337 3.87865C96.6177 4.27588 96.7089 4.70969 96.7004 5.14728C96.7267 5.73326 96.5285 6.30723 96.146 6.75235C95.7673 7.17482 95.283 7.48926 94.7427 7.66353C95.0799 7.68742 95.4091 7.77795 95.711 7.92987C96.0078 8.08685 96.274 8.29576 96.4969 8.54667C96.7193 8.80654 96.895 9.10297 97.0161 9.4228C97.1499 9.7668 97.2166 10.1332 97.2126 10.5022C97.2228 10.9769 97.1143 11.4467 96.8968 11.8689C96.688 12.2596 96.3928 12.5975 96.0338 12.8572C95.6471 13.1336 95.2149 13.34 94.7567 13.467C94.2477 13.6104 93.7209 13.6812 93.192 13.6773H89.2627V2.29461ZM90.8134 7.03272H92.9184C93.197 7.03529 93.475 7.00471 93.7463 6.9416C93.9992 6.89661 94.2388 6.79606 94.448 6.64722C94.6431 6.50957 94.802 6.32681 94.9111 6.11453C95.0304 5.86797 95.0882 5.59623 95.0795 5.32251C95.0844 4.88992 94.9295 4.47072 94.6445 4.14499C94.462 3.96349 94.2415 3.8247 93.9988 3.73864C93.7561 3.65259 93.4973 3.62141 93.2411 3.64735H90.8064L90.8134 7.03272ZM90.8134 12.3526H93.0868C93.3502 12.3515 93.6132 12.328 93.8727 12.2825C94.1554 12.2353 94.4267 12.1354 94.6725 11.9881C94.9247 11.8418 95.1406 11.6406 95.304 11.3993C95.4855 11.1053 95.5736 10.7631 95.5566 10.4181C95.5778 10.1302 95.5289 9.84148 95.414 9.57661C95.2992 9.31173 95.1218 9.07859 94.8971 8.89712C94.3763 8.52825 93.7451 8.34777 93.1078 8.38546H90.8134V12.3526Z" fill="#3E3B46"/>
<path d="M97.7979 2.29456L102.12 8.841L102.148 13.7053H103.699V8.841L108 2.29456H106.113L102.899 7.30602L99.7836 2.29456H97.7979Z" fill="#3E3B46"/>
<path fill-rule="evenodd" clip-rule="evenodd" d="M120.977 6.03547C119.894 6.03547 119.013 6.93869 119.013 8.02256C119.013 9.10643 119.916 9.98708 121 9.98708C122.084 9.98708 122.965 9.08385 122.965 7.99998C122.965 6.89353 122.084 6.01289 120.977 6.03547ZM120.977 9.03869C120.413 9.03869 119.961 8.58708 119.961 7.99998C119.961 7.41289 120.413 6.96127 120.977 6.96127C121.542 6.96127 121.994 7.41289 121.994 7.99998C121.994 8.5645 121.542 9.01611 120.977 9.03869Z" fill="#3E3B46"/>
<path fill-rule="evenodd" clip-rule="evenodd" d="M117.952 7.99998C117.952 6.30643 119.306 4.92901 121 4.92901C122.671 4.92901 124.048 6.28385 124.048 7.9774C124.048 9.67094 122.694 11.0484 121 11.0484C119.306 11.0484 117.952 9.69352 117.952 7.99998ZM118.403 7.99998C118.403 9.44514 119.577 10.5968 121 10.5968C122.423 10.5968 123.597 9.44514 123.597 7.99998C123.597 6.55481 122.423 5.4032 121 5.4032C119.555 5.4032 118.403 6.55481 118.403 7.99998Z" fill="#3E3B46"/>
<path fill-rule="evenodd" clip-rule="evenodd" d="M114 8C114 4.13871 117.139 1 121 1C124.861 1 128 4.13871 128 8C128 11.8613 124.861 15 121 15C117.139 15 114 11.8613 114 8ZM117.139 7.97742C117.139 10.1226 118.855 11.8613 121 11.8613C123.123 11.8839 124.861 10.1452 124.861 8C124.861 5.85484 123.123 4.09355 121 4.09355C118.877 4.09355 117.139 5.83226 117.139 7.97742Z" fill="#3E3B46"/>
<path d="M173.035 14.2274V1L182.199 10.4582V1.84281H184.103V15L174.939 5.56522V14.2274H173.035Z" fill="#3E3B46"/>
<path d="M144.282 7.7659V8.1639C144.306 9.00671 144.187 9.8261 143.949 10.6455C143.711 11.3244 143.33 11.9565 142.854 12.495C141.736 13.7592 140.117 14.485 138.403 14.4381C136.69 14.4616 135.047 13.7826 133.881 12.5652C132.643 11.3713 131.977 9.73246 132.001 8.02343C131.977 6.3144 132.667 4.6756 133.905 3.48162C135.857 1.5853 138.808 1.07025 141.307 2.194C142.235 2.68564 143.045 3.34115 143.711 4.13714L142.354 5.40135C141.331 4.04349 140.069 3.36457 138.594 3.36457C137.332 3.34115 136.118 3.83279 135.238 4.72242C134.333 5.61206 133.857 6.80604 133.881 8.07025C133.833 9.38129 134.405 10.6221 135.38 11.4883C136.19 12.2609 137.285 12.7057 138.427 12.7291C139.355 12.7291 140.236 12.4014 140.95 11.7927C141.664 11.2308 142.116 10.4114 142.188 9.52176H139.046V7.7659H144.282Z" fill="#3E3B46"/>
<path d="M155.945 3.59863H150.899V6.57187H155.802V8.32772H150.899V12.4715H155.945V14.2274H148.995V1.84277H155.945V3.59863Z" fill="#3E3B46"/>
<path d="M162.943 3.59863H167.989V1.84277H161.039V14.2274H167.989V12.4715H162.943V8.32772H167.846V6.57187H162.943V3.59863Z" fill="#3E3B46"/>
<path d="M190.863 3.59863H195.909V1.84277H188.958V14.2274H195.909V12.4715H190.863V8.32772H195.766V6.57187H190.863V3.59863Z" fill="#3E3B46"/>
<path d="M208 3.59863H202.954V6.57187H207.857V8.32772H202.954V12.4715H208V14.2274H201.05V1.84277H208V3.59863Z" fill="#3E3B46"/>
</svg>
