<svg width="22" height="12" viewBox="0 0 22 12" fill="none" xmlns="http://www.w3.org/2000/svg">
<path fill-rule="evenodd" clip-rule="evenodd" d="M0 3.5C0 1.84315 1.34315 0.5 3 0.5H17C18.6569 0.5 20 1.84315 20 3.5V8.5C20 10.1569 18.6569 11.5 17 11.5H3C1.34315 11.5 4.76837e-07 10.1569 4.76837e-07 8.5L0 3.5ZM3 1.5H17C18.1046 1.5 19 2.39543 19 3.5V8.5C19 9.60457 18.1046 10.5 17 10.5H3C1.89543 10.5 1 9.60457 1 8.5L1 3.5C1 2.39543 1.89543 1.5 3 1.5Z" fill="#858293"/>
<path d="M20.5 7.93697C21.3626 7.71495 22 6.9319 22 5.99998C22 5.06806 21.3626 4.28501 20.5 4.06299V7.93697Z" fill="#858293"/>
</svg>
